<?xml version="1.0" encoding="utf-8"?>
<!-- Generator: Adobe Illustrator 22.1.0, SVG Export Plug-In . SVG Version: 6.00 Build 0)  -->
<svg version="1.1" id="Layer_1" xmlns="http://www.w3.org/2000/svg" xmlns:xlink="http://www.w3.org/1999/xlink" x="0px" y="0px"
	 viewBox="0 0 500 500" style="enable-background:new 0 0 500 500;" xml:space="preserve">
<style type="text/css">
	.st0{fill:#000;}
</style>
<g>
	<path class="st0" d="M278.3,263.9v-10c-6.7,0.7-10,1.1-16.7,1.8v10c1.3-0.1,2-0.2,3.3-0.4v24.2c-1.3,0.2-2,0.2-3.3,0.4v10
		c6.7-0.8,10-1.2,16.7-1.8v-10c-1.2,0.1-1.8,0.2-3.1,0.3v-24.2C276.4,264.1,277,264,278.3,263.9z M301.1,46.8c1-0.5,2-1.1,2.9-1.9
		s1.8-1.7,2.6-2.7c0.8-1,1.6-1.9,2.5-2.7c-0.8,0.2-1.6,0.5-2.7,1c-1,0.5-2.1,1.1-3.1,1.8c-1.1,0.7-2.1,1.5-3.2,2.3
		c-1.1,0.8-2,1.6-2.8,2.5c0.1,0,0.3,0,0.5,0.1C299,47.4,300.1,47.3,301.1,46.8z M221.9,241.6c-1.9,0.2-2.9,0.3-4.8,0.5
		c0,4,0,6,0,10.1c8-0.8,11.9-1.2,19.9-2.2v-10.1c-2,0.2-3.1,0.4-5.1,0.6c0.6-2.1,0.9-3.1,1.5-5.2c4.5-0.5,6.7-0.8,11.1-1.3
		c0.6,1.9,0.9,2.9,1.6,4.8c-1.8,0.2-2.7,0.3-4.5,0.5v10.1c10.2-1.2,15.2-1.9,25.4-3v-10.1c-1.6,0.2-2.4,0.3-4,0.5
		c-1.1-2.9-1.8-4.4-3-7.3c-0.4-1.1,0.3-2.5,0.9-3.6c0.1-0.2,0.2-0.3,0.3-0.5l-0.5-0.4c-1.4-0.8-3.3-2-3.9-3.4
		c-0.8-1.9-1.2-2.8-2-4.7c1.5-0.2,2.3-0.3,3.8-0.5v-10.1c-13.2,1.6-19.9,2.5-33.1,3.9v10.1c1.7-0.2,2.5-0.3,4.3-0.4
		c-0.8,2.1-1.1,3.1-1.9,5.2c-0.5,1.5-2.5,3.1-3.9,4.2c-0.2,0.2-0.3,0.3-0.5,0.4c0.1,0.2,0.2,0.3,0.3,0.4c0.6,0.9,1.3,2.3,0.9,3.6
		C223.6,236.9,223,238.5,221.9,241.6z M224.5,230.8c-0.1-0.2-0.3-0.6-0.5-0.8c2.8-0.3,4.3-0.4,7.1-0.8c0,0-3.9,1.5-6,3.8
		c0-0.4-0.1-0.8-0.2-1.2C224.8,231.4,224.6,231.1,224.5,230.8z M225.5,246.4c4.2-12.8,6.3-19.3,10.6-32.2c-2.3,2.1-3.5,3.2-5.8,5.3
		c-1.8,0.2-2.6,0.3-4.4,0.5c1.4-2,2.1-3,3.5-5c2.7-0.3,4-0.4,6.7-0.8c3.7-0.4,5.6-0.6,9.3-1.1c3.7-0.4,5.6-0.7,9.3-1.1
		c1.4-2,2.1-2.9,3.5-4.9v9.2c-1.6,0.2-2.4,0.3-4,0.5c0.9,2.2,1.3,3.3,2.2,5.5c0.1,0.3,0.3,0.6,0.5,0.8c-2.5,1.6-3.8,2.4-6.3,4
		c3.9-0.5,5.9-0.7,9.9-1.2c-0.1,0.3-0.3,0.6-0.4,0.9c-0.1,0.3-0.3,0.6-0.4,1c-0.2,0.7-0.3,1.5,0,2.3c1.2,3,1.8,4.5,3.1,7.4
		c-2.4,2.1-3.7,3.2-6.1,5.3c2.6-0.3,3.9-0.4,6.5-0.8c1.4-2,2.1-3,3.5-5c0,3.7,0,5.5,0,9.1c-9.9,1.1-14.8,1.8-24.7,2.9
		c1.4-2,2.1-2.9,3.5-4.9c4.5-0.5,6.7-0.8,11.2-1.3c-4.5-11.9-6.7-17.8-11.1-29.7c-2.5,2.1-3.7,3.1-6.2,5.2c-0.1-0.4-0.2-0.5-0.3-0.9
		c-1.5,4.5-2.2,6.7-3.6,11.2c-2,1.5-3,2.3-5,3.7c8.6-0.9,12.8-1.5,21.4-2.5c-2.7,1.5-4,2.3-6.7,3.8c-4.7,0.6-7.1,0.8-11.8,1.4
		c-0.7,2.4-1.1,3.7-1.8,6.1c-2.2,2.1-3.3,3.2-5.6,5.2c2.9-0.3,4.4-0.5,7.3-0.8c1.5-2.1,2.2-3.1,3.6-5.2v9.3
		c-7.7,0.9-11.6,1.3-19.3,2.1c1.3-1.9,2-2.9,3.4-4.8C222.7,246.7,223.6,246.6,225.5,246.4z M242.1,227.3c-2.5,0.3-3.8,0.4-6.3,0.7
		c1.2-3.9,1.9-5.9,3.1-9.8C240.2,221.9,240.8,223.7,242.1,227.3z M256.1,269.3v-13c-16,1.9-24,3-40.1,4.5v13c3.9-0.4,5.8-0.5,9.7-1
		v-3c2.1-0.2,3.1-0.3,5.2-0.5c0,9.7,0,14.6,0,24.3c-1.5,0.2-2.2,0.3-3.6,0.4c0,4,0,6,0,10c6.7-0.7,10-1.1,16.7-1.9v-10
		c-1.2,0.2-1.8,0.3-3,0.4v-24.3c2.1-0.3,3.1-0.4,5.1-0.6v3C250.1,270.1,252.1,269.8,256.1,269.3z M286.7,164.7l5.1,10.3l2-11.3
		l11.4-1.6l-10.2-5.4l2-11.3l-8.2,8l-10.1-5.4l5.1,10.3l-8.3,8L286.7,164.7z M229,39.6c0.8-0.8,1.4-1.7,1.9-2.8
		c0.5-1.1,1-2.2,1.3-3.4c0.4-1.2,0.8-2.3,1.3-3.3c-0.6,0.4-1.3,1-2.1,1.8c-0.7,0.8-1.5,1.7-2.2,2.7c-0.7,1-1.4,2.1-2.1,3.2
		c-0.7,1.1-1.2,2.2-1.6,3.2c0.1,0,0.3,0,0.5-0.1C227.2,40.8,228.2,40.4,229,39.6z M248.9,143.5l-1.1-3.3c-1.7,1-3.4,1.9-5,2.8
		l-2.3,1.3c-1.6,0.9-3.3,1.9-5,3l4.1,3l-3.5,10.9l9.3-6.8l9.3,6.8l-3.5-10.9l9.3-6.8H248.9z M130.5,80.2
		c-3.9,15.1-5.8,22.6-9.8,37.7c14.9-16.2,33.5-28.8,53.8-37.2c-1.6-4-2.9-7.6-4.1-10.9c23.6-11.6,51-17.3,76.3-16.7
		c27.2,0.6,51.4,6.2,76.1,17.2c-1.2,3.2-2.4,6.6-3.9,10.4c20.3,8.5,38.9,21,53.7,37.2c-4-15-6-22.6-9.8-37.7
		c14.4-0.2,21.6-0.5,36-1.4c-15.4-13.4-33.3-24.2-51.9-32.7c1.7-3.2,3.4-6.5,5-9.7c-32.4-16.8-68.8-25.4-105.3-25.4
		c-36.6,0-73.2,8.7-105.8,25.7c1.6,3.2,3.3,6.4,5,9.6c-18.5,8.5-35.9,19.6-51.4,32.6C108.9,79.7,116.1,80,130.5,80.2z M286.3,32.4
		c-0.2,0.5-0.7,1.1-1.3,1.7c-0.7,0.6-1.4,1.3-2.3,1.9c-0.9,0.6-1.8,1.2-2.8,1.7c-1,0.5-1.9,0.9-2.8,1.2c0,0,0,0,0,0s0,0,0,0
		c-0.1,0.1-0.3,0.4-0.5,0.8c-0.2,0.4-0.3,0.8-0.4,1.2c-0.1,0.4-0.1,0.8-0.1,1.2c0.1,0.4,0.3,0.6,0.7,0.6c0.5,0.1,1.2,0,1.9-0.3
		c0.7-0.3,1.4-0.7,2-1.1c0.6-0.4,1-0.9,1.2-1.4c0.2-0.5,0.1-1-0.3-1.3c1.1,0.1,1.8,0.2,2.7,0.4c0.2-0.2,0.4-0.4,0.7-0.6
		c1.1-0.9,2.3-1.6,3.6-2.2c1.3-0.6,2.6-1.1,3.9-1.3c1.3-0.3,2.6-0.3,3.9-0.1c0.8-0.6,1.6-1.1,2.5-1.3c0.9-0.2,1.9,0,3,0.5
		c-0.3,0-0.7,0.2-1.2,0.8c-0.5,0.6-1.1,1.4-1.8,2.3c-0.7,0.9-1.6,1.9-2.5,2.9c-1,1.1-2.1,2-3.3,2.8c-1.2,0.8-2.6,1.4-4.2,1.9
		c-1.5,0.4-3.2,0.5-5.1,0.2c-0.1,0-0.2,0-0.3-0.1c-0.5,0.6-0.9,1.2-1.2,1.8c-0.3,0.6-0.5,1.1-0.5,1.6c0,0.5,0.1,0.9,0.4,1.2
		c0.3,0.4,0.7,0.6,1.4,0.7c0.7,0.1,1.5,0.1,2.4-0.2c0.9-0.3,1.9-0.7,2.9-1.2c1-0.6,2-1.2,2.9-1.9c0.9-0.7,1.7-1.4,2.3-2.1
		c0.6-0.7,1.1-1.3,1.3-1.8c0.2-0.5,0.1-0.9-0.3-1.1c1,0.2,1.7,0.4,2.5,0.5c0.3-0.2,0.5-0.4,0.8-0.5c1.2-0.8,2.4-1.5,3.8-2
		c1.3-0.5,2.7-0.9,4-1.1c1.4-0.2,2.7-0.1,3.9,0.2c0.8-0.6,1.7-1,2.6-1.2c0.9-0.1,1.9,0.1,3,0.7c-0.3-0.1-0.7,0.2-1.2,0.7
		c-0.5,0.5-1.2,1.3-2,2.1c-0.8,0.9-1.7,1.8-2.7,2.7c-1,1-2.2,1.8-3.5,2.6c-1.3,0.7-2.8,1.2-4.3,1.6c-1.6,0.3-3.3,0.3-5.1-0.2
		c-0.1,0-0.2,0-0.3-0.1c-0.5,0.6-0.9,1.2-1.3,1.7c-0.4,0.6-0.5,1.1-0.6,1.5c-0.1,0.5,0,0.9,0.3,1.2c0.3,0.4,0.7,0.6,1.3,0.8
		c0.7,0.2,1.5,0.2,2.5-0.1c1-0.2,2-0.6,3.1-1.1c1.1-0.5,2.1-1,3.1-1.7c1-0.6,1.8-1.2,2.5-1.9c0.7-0.6,1.2-1.2,1.4-1.8
		c0.3-0.5,0.2-0.9-0.2-1.2c1.5,0.4,2.3,0.6,3.8,1c-2,1.7-4.1,3.2-6.1,4.4c-0.9,0.5-1.8,1-2.7,1.5c-0.9,0.4-1.9,0.8-2.8,1.1
		c-1,0.3-1.9,0.5-2.8,0.6c-0.9,0.1-1.8,0-2.6-0.3c-1.3-0.4-2.2-0.9-2.7-1.6c-0.5-0.7-0.7-1.5-0.7-2.4c0.1-0.7,0.3-1.4,0.7-2.2
		c-0.6,0.4-1.3,0.8-1.9,1.2c-0.9,0.5-1.8,1-2.7,1.3c-0.9,0.3-1.8,0.6-2.8,0.7c-0.9,0.1-1.7,0.1-2.6-0.1c-1.3-0.3-2.2-0.8-2.8-1.4
		c-0.5-0.7-0.8-1.4-0.8-2.3c0-0.9,0.3-1.8,0.8-2.8c0.3-0.5,0.6-1.1,1-1.6c-0.5,0.2-0.9,0.5-1.4,0.7c-1.1,0.4-2.1,0.6-3.2,0.4
		c-0.8-0.1-1.3-0.5-1.4-1.2c-0.1-0.7,0-1.5,0.3-2.5c-0.7,0.3-1.3,0.7-2,1.1c-0.7,0.4-1.4,0.9-2.1,1.4c-0.7,0.5-1.4,1-2,1.5
		c-0.6,0.5-1.2,1.1-1.7,1.7c-0.5,0.7-0.9,1.3-1,1.7c-0.2,0.4-0.1,0.7,0.2,0.7c-0.9-0.1-1.5-0.5-1.7-1c-0.2-0.5-0.2-1.2,0.1-1.9
		c0.3-0.8,0.8-1.6,1.4-2.5c0.7-0.9,1.4-1.9,2.2-2.9c0.8-1,1.6-2,2.4-2.9c0.8-1,1.5-1.9,2.1-2.7c0.6-0.8,1-1.5,1.3-2.2
		c0.2-0.6,0.2-1.1,0-1.3c0.9,0.1,1.7,0.3,2.3,0.6c0.6,0.3,1,0.5,1.4,0.8c0.4,0.3,0.7,0.6,0.9,1c-0.6,0.6-1.2,1.3-1.9,2
		c-0.7,0.8-1.4,1.5-2.2,2.3c-0.7,0.8-1.5,1.5-2.2,2.3c-0.7,0.8-1.4,1.5-2.1,2.3c1-0.8,1.9-1.5,2.8-2.1c0.9-0.6,1.8-1.1,2.6-1.6
		c0.3-0.6,0.8-1.2,1.2-1.8c0.5-0.6,1-1.2,1.6-1.7c0.6-0.6,1.2-1.1,1.9-1.6c0.7-0.5,1.4-0.9,2.2-1.3
		C284.2,32.1,284.9,32.2,286.3,32.4z M249.5,44.7c0.2-0.7,0.5-1.4,1-2.3c0.5-0.9,1.1-1.9,1.8-2.9c0.7-1,1.4-2.1,2.3-3.2
		c0.8-1.1,1.6-2.2,2.5-3.3c-0.8-0.3-1.6-0.5-2.4-0.5c-0.8-0.1-1.6,0.1-2.5,0.5c0.6-0.4,1.4-0.7,2.4-0.8c1-0.1,2-0.2,3.2-0.1
		c0.9-1.2,1.7-2.3,2.5-3.4c0.8-1.1,1.4-2.1,2-3c0.6-0.9,1-1.6,1.2-2.3c0.3-0.6,0.3-1.1,0.1-1.4c-1.2-0.3-2.3-0.5-3.4-0.6
		c-1.1-0.2-2-0.2-2.9-0.2c-0.8,0.1-1.6,0.3-2.1,0.6c-0.6,0.3-1,0.9-1.2,1.6c0.2-1.1,0.8-1.9,1.6-2.5c0.9-0.6,1.9-1,3.2-1.2
		c1.3-0.2,2.7-0.3,4.3-0.3c1.6,0,3.2,0.1,4.8,0.3c1.7,0.2,3.3,0.3,4.9,0.4c1.6,0.2,3.1,0.2,4.4,0.3c1.3,0,2.5-0.1,3.4-0.3
		c0.9-0.2,1.6-0.6,1.9-1.1c-0.3,1.1-0.7,2.1-1.3,2.8c-0.6,0.7-1.3,1.2-2.2,1.6c-0.9,0.4-1.8,0.6-2.9,0.6c-1.1,0.1-2.2,0-3.3-0.1
		c-1.1-0.1-2.3-0.3-3.6-0.6c-1.2-0.2-2.4-0.5-3.6-0.8c0.4,0.2,0.7,0.5,0.9,0.7c0.2,0.3,0.4,0.5,0.4,0.8c0.1,0.3,0.2,0.6,0.3,0.9
		c-2.4,3-3.5,4.4-6,7.4c1.1,0.1,2.2,0.2,3.2,0.4c1.1,0.1,2,0.2,2.9,0.3c0.9,0.1,1.7,0.1,2.4,0.1c0.7,0,1.2-0.1,1.5-0.3
		c-1.1,1.4-2.1,2.3-3.1,2.8c-1,0.5-2,0.8-2.9,0.7c-1,0-1.9-0.2-2.8-0.7c-0.9-0.4-1.8-0.8-2.8-1.3c-1.2,1.6-2.4,3.1-3.6,4.6
		c-1.2,1.5-2.3,2.9-3.1,4.1c-0.9,1.2-1.5,2.2-1.9,2.9c-0.4,0.7-0.4,1.1-0.1,1.2c-0.7-0.1-1.2-0.3-1.4-0.7
		C249.4,45.9,249.4,45.4,249.5,44.7z M206.1,26.4c0.1-0.6,0.2-1.3,0.5-2c0.8-0.3,1.5-0.5,2.1-0.6c0.6,0,1.1,0.1,1.3,0.5
		c0.2,0.4,0.2,1,0,1.7c-0.3,0.8-0.9,1.9-2,3.2c-0.5,0.1-0.9,0.1-1.2-0.2c-0.3-0.2-0.5-0.6-0.6-1C206.1,27.5,206.1,27,206.1,26.4z
		 M183.8,54.2c0.5-0.6,1.1-1.1,1.7-1.5c0.6-0.4,1.3-0.7,2-0.9c0.7-0.2,1.5-0.4,2.2-0.5c-0.6-0.3-0.9-0.9-1-1.8c-0.1-1,0-2.1,0.1-3.5
		c0.2-1.4,0.5-2.9,0.9-4.5c0.4-1.6,0.9-3.3,1.3-5c0.5-1.7,0.9-3.4,1.4-5c0.4-1.6,0.8-3.1,1.1-4.3c0.3-1.3,0.4-2.3,0.5-3.1
		c0-0.8-0.1-1.3-0.5-1.4c0.9-0.3,1.7-0.4,2.3-0.4c0.7,0,1.2,0,1.7,0.1c0.5,0.1,0.9,0.3,1.3,0.5c-0.4,1.1-0.8,2.5-1.4,4.2
		c-0.5,1.7-1.1,3.6-1.8,5.6c-0.6,2-1.2,4-1.9,6c-0.6,2.1-1.2,4-1.6,5.7c-0.5,1.7-0.9,3.2-1.1,4.4c-0.3,1.2-0.3,2-0.2,2.3
		c1.1-0.1,2.2-0.1,3.3-0.1c1.1,0,2.2,0,3.1-0.2c0.4,0,0.7-0.1,1.1-0.2c-0.1-0.4-0.1-0.9-0.1-1.4c0-0.9,0.2-1.9,0.5-3.1
		c0.3-1.2,0.6-2.4,1.1-3.6c0.4-1.2,0.8-2.4,1.2-3.6c0.4-1.2,0.7-2.3,0.9-3.2c0.2-0.9,0.3-1.6,0.3-2.2c0-0.5-0.3-0.8-0.7-0.7
		c0.9-0.2,1.7-0.3,2.4-0.2c0.6,0.1,1.2,0.2,1.6,0.3c0.5,0.2,0.9,0.4,1.2,0.7c-1.4,3.1-2.5,5.9-3.5,8.4c-0.4,1-0.8,2.1-1.1,3
		c-0.4,1-0.6,1.9-0.8,2.6c-0.2,0.7-0.2,1.3-0.2,1.7c0.2-0.2,0.4-0.5,0.5-0.7c-0.1,0.5-0.2,0.9-0.3,1.3c0.1,0,0.1,0,0.3,0
		c0.5-0.1,1.1-0.4,1.7-1c0.6-0.6,1.2-1.3,1.7-2.1c0.5-0.8,1-1.7,1.5-2.7c0.4-0.9,0.8-1.8,1-2.6c0.2-0.8,0.3-1.5,0.2-2
		c-0.1-0.6-0.4-0.8-0.8-0.9c1-0.2,1.6-0.3,2.3-0.4c0.1-0.3,0.3-0.6,0.4-1c0.4-1.2,0.8-2.2,1.1-3.1c0.3-0.9,0.4-1.6,0.4-2.1
		c0-0.5-0.3-0.8-0.7-0.7c1-0.1,1.8-0.1,2.4,0c0.6,0.1,1.2,0.2,1.6,0.4c0.5,0.2,0.9,0.4,1.2,0.7c-1.6,3-3,5.7-4,8.1
		c-0.5,1-0.9,2-1.3,2.9c-0.4,0.9-0.8,1.8-1,2.5c-0.2,0.7-0.4,1.3-0.4,1.7c0,0.4,0.1,0.6,0.4,0.6c0.2,0,0.5-0.2,1-0.6
		c0.4-0.4,0.9-0.8,1.5-1.4c0.6-0.6,1.1-1.2,1.8-2c0.6-0.8,1.2-1.6,1.7-2.5c-0.1-0.4-0.2-0.9-0.2-1.3c0-0.4,0-0.9,0-1.2
		c0-0.4,0.1-0.9,0.2-1.3c0.1-0.8,0.3-1.7,0.7-2.7c0.3-0.9,0.7-1.7,1-2.5c0.4-0.9,0.8-1.8,1.3-2.7c1.3-0.2,2-0.3,3.3-0.5
		c0,0.2,0,0.6,0,1.1c-0.1,0.5-0.2,1.1-0.3,1.6c-0.1,0.6-0.3,1.2-0.5,1.8c-0.2,0.6-0.4,1.1-0.6,1.6c-0.7,1.6-1.6,3.3-2.8,5.1
		c-0.1,0.6-0.1,1.2,0,1.6c0.2,0.4,0.5,0.6,1.1,0.5c0.4,0,0.8-0.2,1.1-0.5c0.4-0.3,0.8-0.7,1.1-1.1c0.4-0.4,0.6-0.9,0.9-1.4
		c0.3-0.5,0.4-1,0.5-1.5c0.1-0.4,0.1-0.9,0-1.2c-0.1-0.4-0.3-0.6-0.7-0.8c1.1-0.2,1.8-0.3,2.7-0.4c0.2-0.2,0.3-0.5,0.5-0.7
		c0.8-1.2,1.7-2.2,2.7-3.1c1-0.9,2.1-1.7,3.3-2.3c1.2-0.6,2.4-1,3.6-1.2c0.6-0.9,1.2-1.5,2-1.9c0.8-0.4,1.8-0.6,3-0.3
		c-0.3,0-0.6,0.4-0.9,1.1c-0.2,0.7-0.6,1.6-1,2.6c-0.4,1.1-0.9,2.2-1.5,3.5c-0.6,1.2-1.3,2.5-2.3,3.5c-0.9,1.1-2,2.1-3.3,2.9
		c-1.3,0.8-2.9,1.4-4.7,1.6c-0.1,0-0.2,0-0.3,0c-0.3,0.8-0.4,1.4-0.5,2.1c-0.1,0.6-0.1,1.2,0,1.6c0.1,0.4,0.4,0.8,0.7,1.1
		c0.4,0.2,0.9,0.4,1.6,0.3c0.7,0,1.4-0.3,2.2-0.9c0.8-0.5,1.6-1.2,2.4-2c0.8-0.8,1.5-1.7,2.2-2.6c0.7-0.9,1.2-1.8,1.6-2.6
		c0.4-0.8,0.6-1.5,0.6-2.1c0-0.6-0.2-0.9-0.6-1c1.5-0.1,2.3-0.2,3.9-0.3c-1.2,2.3-2.5,4.3-3.9,6.1c-0.6,0.8-1.2,1.5-1.9,2.3
		c-0.7,0.8-1.4,1.4-2.2,2c-0.8,0.6-1.6,1.1-2.3,1.5c-0.8,0.4-1.6,0.6-2.5,0.7c-1.3,0.1-2.4-0.1-3.1-0.6c-0.8-0.5-1.3-1.1-1.5-2
		c-0.3-0.8-0.3-1.8-0.2-2.9c0-0.2,0.1-0.4,0.1-0.5c-0.2,0.3-0.5,0.5-0.8,0.8c-0.4,0.4-0.9,0.7-1.4,1c-0.5,0.3-1,0.4-1.5,0.5
		c-0.6,0.1-1.1,0-1.4-0.1c-0.4-0.2-0.7-0.4-0.9-0.8c-0.7,0.9-1.4,1.8-2.1,2.6c-0.7,0.8-1.5,1.5-2.1,2.2c-0.7,0.6-1.4,1.1-2,1.5
		c-0.6,0.4-1.1,0.6-1.6,0.6c-0.8,0.1-1.4-0.1-1.7-0.6c-0.2-0.5-0.3-1.2-0.2-2c0,0,0-0.1,0-0.1c-0.5,0.6-1,1.3-1.5,1.8
		c-0.6,0.7-1.3,1.2-2,1.7c-0.6,0.4-1.3,0.7-1.9,0.8c-0.1,0.2-0.2,0.4-0.3,0.5c-0.6,0.8-1.3,1.4-2,1.8c-0.8,0.4-1.7,0.6-2.6,0.6
		c-0.9,0-1.9,0-2.9-0.1c-1-0.1-2-0.2-3-0.4c-1-0.1-1.9-0.2-2.8-0.1c-0.9,0-1.8,0.2-2.6,0.6c-0.8,0.3-1.5,0.9-2.1,1.8
		C182.9,55.6,183.3,54.8,183.8,54.2z M302.7,409.9c86-30,131.4-124.1,101.3-210.1c-14.8-42.3-45.1-74.7-82.3-93.2l0.4,0
		c-0.5-0.2-1.1-0.4-1.6-0.6c-2.5-1.2-5.1-2.4-7.7-3.5c-9.3-4.8-15.9-9.7-23.2-11.6c-9.5-2.4-22-6.6-27.2-9.6
		c-5.2-3-8.2-2.5-10.2-1.9c0,0-7.2-3.8-8.9-4.3c-1.6-0.5-2.6,0-2.8,0c-0.2,0-9.4-3.7-11.2-6c-1.8-2.3-4.7-7.4-10.2-7.1
		c0,0-4.3,0.8-5.7,3.1c-1.4,2.3-1.4,2.3-1.4,2.3s0-0.1-0.4,0.2c-0.4,0.2-1.5,1.6-1.6,2.2c-0.1,0.6,0.6,1.8,0.4,2.4
		c-0.1,0.6-3.1,6.7-3.5,7.3c-0.5,0.7-5.2,7.4,0.8,12.9c2.7,2.5,5.5,4.6,5.5,4.6s-5-5.4-5.7-7.3c-0.9-2.6-1-5.2,0.6-6.1
		c0.5-0.3,1.4-0.1,2.5,0.2c-0.4,0.8-0.8,1.7-1,2.6c-0.6,2.3,1.5,8.3,6,11.4c0,0-4.8-5.9-4.2-9.2c0.1-0.5,0.2-0.9,0.4-1.3
		c0.4-0.6,1.2-1.9,2.6-1.8c1.4,0.7,2.9,1.5,4.1,1.9c3.4,1.4,18.4,12.7,20.5,14.3c2.1,1.6,1.9,5.1,0.2,9.6
		c-1.6,4.6-15.9,23.3-17.5,24.7c-1.7,1.4-7.4,10.1-8-0.8c0,0-1.8,4.6-0.4,8.4c0,0-2.4,4.8-2.4,5.8c0,1,0.1,4.3,2.1,5.6
		c2,1.2,3.4,2.8,8.4-0.7c5.1-3.5,12-8.7,17.9-11.9c5.9-3.2,14.3-7.6,18.7-11.4c4.1-3.5,11.1-14.3,26.6-13.7
		c-0.1,0.1-0.2,0.2-0.3,0.3c-1.7,2.2-3.4,4.4-4.6,7.1c-1,2.2-2.4,5.4,0.5,5.9c4.8,0.7,8-5.4,10.9-7c1.1-0.6,2.5-0.7,3.6-0.8
		c3.8-0.5,7.1-0.8,10.5-0.7c0.8,0,6.6-0.4,6.8-0.1c0.9,1.1-2.6,2.6-3.3,3.2c-2,2-11.4,9.6-8.2,12.9c2.6,2.2,7-1.1,8.7-2.3
		c1.2-0.9,2.4-2.3,4.7-2.6c4.7-0.6,9.6,0.7,13.8,1.3c1.1,0.2,6.3,0.7,6.6,1.5c-0.7,1.3-3.4,1.9-4.8,2.6c-9.1,4.3-11.4,8.6-9.8,10.5
		c1.8,2.1,7.3,0.4,10.5-1.2c0.7-0.4,1.4-0.9,2.4-1.1c4.9-0.5,11.7,2.7,16,3.9c1.4,0.4,4.7,0.4,5,2.5c-0.9,1-2.7,1.2-4.4,1.7
		c-6.5,1.9-14.4,5-11.7,9.4c0.8,1.4,4.1,2,8.3,0.2c1.2-0.4,2.5-0.8,3.7-1.2c5-0.3,11.9,4.3,16.2,6.3c1,0.4,4.2,1.6,4.5,2.7
		c-0.6,0.8-3.7,0.7-4.8,0.8c-4.3,0.4-13.8,3.6-13.2,6.8c0.6,3,5.9,3,8.7,2.7c1.3-0.2,2.6-0.3,3.8-0.5c4.3,0.5,11.2,6.2,14.6,9
		c1.3,1.1,3.4,1.7,4.3,3.4c0,0.2,0,0.3,0,0.4c-1.1,0.5-2.5-0.2-3.6-0.3c-6.6-0.3-19.5-0.1-15.5,4.6c1.8,2.1,4.8,2.6,7.9,2.7
		c1.1,0,2.3-0.2,3.6,0.4c1.5,0.7,2.8,2.1,3.8,3.1c2.4,2.4,4.7,4.6,6.9,7c0.7,0.8,5.1,4.7,4,5.5c-1.3,0.5-3.7-1-5.4-1.1
		c-4.2-0.4-12.2-1.6-13.9,1.3c-1.4,2.6,5,5.3,7.2,6.1c1.3,0.5,2.6,0.2,3.7,0.8c4.4,2.4,7.4,9.3,10.1,13c0.8,1,2.7,3.6,3,4.8
		c-0.1,0.2-0.2,0.4-0.3,0.5c-1.2,0.3-3-1.2-4.2-1.7c-3.8-1.8-13.5-4.2-15-1.1c-1.9,3.7,3.7,5.7,6.5,7c1,0.4,2,0.9,3,1.3
		c3.2,2.3,6.5,11.4,7.9,15.2c0.6,1.6,2,3.1,1.9,5.1c-0.1,0.1-0.2,0.2-0.2,0.4c-1.3-0.1-2.3-1.6-3.2-2.3c-2.5-1.8-12.6-7.3-15.3-4.1
		c-2.4,2.9,2.4,6.1,4.4,7.5c1.1,0.8,2.2,1.5,3.3,2.3c3.4,3.3,4.7,13.1,5.7,18.2c0.2,1.2,0.9,2.2,0.9,3.6c-0.1,0.1-0.1,0.2-0.2,0.3
		c-1.3,0-2.5-2.2-3.3-3c-2-2-5.4-4.6-8.2-5.9c-1.9-0.9-5.2-1.8-6.2-0.3c-1,1.4,1.4,5.3,2.1,6.1c1.5,1.7,3.1,3.4,4.6,5.1
		c1.9,3.9,1.8,9.4,2.1,14.3c0,1.3,0.7,7.4,0,8c-0.1,0-0.1,0-0.2,0c-1.3-0.5-2-2.7-2.8-3.6c-2.1-2.5-4.1-5.2-7-7.1
		c-1.3-0.8-4.2-2.8-5.7-1.4c-1.5,1.4,0.9,6.2,1.3,7.2c1,2.1,2.9,3.7,3.6,6c0.3,1.1,0.1,2.2,0.1,3.4c0,3.4-0.5,7-0.8,10.9
		c-0.1,1.6-0.5,6.6-1.4,7.3c-0.1,0-0.2,0-0.2,0c-1.2-0.8-1.5-3.1-2.1-4.4c-1.5-3-3.4-5.8-5.9-8.2c-0.9-0.9-3.4-3.4-5.1-2.2
		c-1.8,1.3-0.4,6.3,0,7.6c0.8,1.8,1.5,3.6,2.3,5.4c0.8,4.2-1.6,11.2-3.3,15.4c-0.6,1.6-1,4.8-1.9,5.9c0,0-0.1,0-0.1,0
		c-1.7-0.1-1.6-3.4-2-4.6c-0.9-2.5-4.3-12.3-8.4-12.1c-2.3,0.1-2.1,5.3-1.9,6.9c0.3,2.6,1.6,4.8,1.5,7.6c-0.1,1.7-1.2,3.4-1.8,4.7
		c-1.7,3.9-3,7.4-5.1,10.7c-0.7,1.1-1.1,2.9-1.9,3.7c-1.6-0.2-1-3.9-1.2-5.1c-0.4-2.8-2.6-13.3-6.3-13.3c-2.4,0-3,6.4-3,8.6
		c0,1.9,0.8,3.2,0.3,5.4c-0.4,2.3-2.5,4.6-3.5,6.1c-2.7,4-5.1,8-8.2,11.4c-0.2,0-0.4,0-0.6,0c-0.7-1.1,0.1-3.3,0.1-4.8
		c0-3.5-0.3-14.4-4.1-14.8c-3.8-0.3-4,6.1-4.2,9.1c0,1.2,0.1,2.7-0.5,4c-1.1,2.3-2.9,4-4.5,5.6c-2.3,2.3-4.3,4.7-6.8,6.7
		c-1,0.8-2.3,2.9-3.6,3.3c-1.5-0.5,0.6-4.5,0.8-6.5c0.4-4,1.8-12.5-1.6-13.6c-3.3-1.1-5.1,4.4-5.8,7.7c-0.3,1.3-0.3,2.4-0.8,3.5
		c-1.9,3.7-9.8,8.9-13.3,10.7c-1.4,0.8-2.9,2.7-4.7,2.8c-0.2-0.1-0.3-0.3-0.5-0.4c0.2-1.3,1.4-2.4,1.9-3.7c1.5-3.4,2.7-7.8,2.7-11.6
		c-0.1-3.6-1.7-4.8-3.5-4.5c-3,0.4-4.5,7.2-5.4,8.9c-2.7,3.3-9.5,6.1-13.8,7.6c-1.6,0.6-4.3,2.4-5.7,2.4c0,0-0.1,0-0.1,0
		c-1-1.4,1.5-3.5,2.2-4.6c1.3-2.3,6.4-11.3,3.7-14.2c-1.6-1.7-5.4,1.9-6.5,3.1c-1.7,2-2.6,4.4-4.8,6.1c-1.4,1-3.4,1.3-4.7,1.7
		c-4.1,1.3-7.6,2.6-11.4,3.2c-1.2,0.2-2.9,1.1-4,0.9c-0.9-1.4,2.2-3.3,3-4.3c1.9-2.1,8.3-10.7,5.9-13.4c-1.6-1.9-6.8,1.9-8.5,3.3
		c-1.4,1.2-1.9,2.6-3.9,3.8c-2,1.2-5.1,1.1-7,1.3c-4.8,0.5-9.4,1.4-14,1.3c-0.1-0.2-0.2-0.3-0.4-0.5c0.4-1.3,2.5-2.1,3.7-3.1
		c2.6-2.3,11.4-10.3,8.5-12.8c-2.5-2.2-7.2,0.9-9.6,2.8c-0.9,0.7-2,1.9-3.3,2.3c-2.4,0.7-5,0.4-7.2,0.3c-3.2-0.3-6.4-0.2-9.5-0.7
		c-1.3-0.3-3.7,0.2-4.9-0.5c-0.6-1.5,3.8-2.5,5.5-3.6c2.6-1.9,8.9-5,9.2-8.7c0.2-1.6-0.6-5-6.4-2.3c-2,0.9-4,2.4-6.2,2.7
		c-3.3,0.5-10.7-1.7-14.3-3.1c-1.6-0.6-5.8-1.4-6.5-2.3c0-0.2,0-0.3,0.1-0.5c1.4-0.9,3.6-1.1,5.2-1.6c3-1,6.4-2.5,8.7-4.6
		c1.3-1.2,3.4-3.9,2-5c-3.8-3-9.6,0.9-12.9,0.9c-1.2,0-2.5-0.6-3.6-1.1c-3.6-1.4-6.6-2.8-9.5-4.4c-0.7-0.4-6-2.8-6-3.2
		c-0.2-1.5,3.5-1,4.4-1.2c2.8-0.8,14.6-2.9,13.4-7.3c-1.2-3.2-6.7-2.4-8.7-2.2c-1.5,0.2-3.2,0.9-5.4,0c-4.4-1.8-8-5.2-11.4-7.8
		c-0.9-0.7-5.1-3.6-5-4.5c1.2-0.8,3.9,0,5.5,0c3.5,0,7.6-0.3,10.4-1.7c0.7-0.3,3.6-1.6,3.2-2.8c-0.8-2.6-6.2-3.8-9.7-4.1
		c-0.8,0-1.6,0.2-2.7-0.2c-4.6-1.9-8.9-8-12.1-11.2c-1.1-1.1-4-2.6-3.1-4.6c1.2-0.4,2.9,0.8,4.6,1.2c10.3,2.4,14.9,1.4,14.9-2.3
		c0-2.5-9.8-5.5-11.1-5.8c-4.5-2.2-8.3-9.5-11.1-13.3c-0.6-0.8-2.9-3.4-2.6-4.5c0.9-0.5,3.6,1.2,4.6,1.6c3.9,1.7,13.2,3.3,14.8,0.4
		c0.4-0.7-0.1-1.4-0.4-1.9c-1.1-2.1-3.3-3.6-5.9-4.7c-1.2-0.5-2.4-1-3.6-1.4c-3.5-2.5-6.9-10.9-8.4-14.9c-0.6-1.6-2.2-3.1-2.1-5
		c0.1-0.1,0.1-0.3,0.3-0.4c1.2,0.1,2.1,1.4,3.1,2c2.6,1.6,12.3,6.6,15.5,3.8c0.8-0.7,0.3-1.8-0.1-2.5c-1.2-2.2-2.8-3.8-5-5.4
		c-1-0.6-1.9-1.2-2.9-1.8c-3.5-3.4-5.3-12.8-6.4-18c-0.3-1.2-1-2.2-1.1-3.7c0.1-0.1,0.2-0.2,0.3-0.3c1.6,0.2,2.6,2.3,3.8,3.2
		c2.5,1.9,5.3,4.3,8.2,5.3c1.9,0.6,4.9,1.6,5.9,0.1c1.9-2.9-5-8.7-6.5-10.3c-2.6-2.7-3.1-12.7-3.4-17.1c-0.1-1.4-0.7-4.7-0.2-5.7
		c1.3-0.2,2.3,2.4,2.9,3.2c1.5,1.9,9.6,10.7,13.1,8.5c1.9-1.3-0.8-6.4-1.4-7.5c-1.1-2-3-3.5-3.7-5.7c-0.4-1.1-0.2-2.3-0.2-3.6
		c0-2.1,0-4.1-0.1-6.2c0.2-1.6,0.3-3.2,0.5-4.9c0-1.5,0.2-6,0.9-6.9c0.2,0,0.3,0,0.4,0c1,1.2,1.2,2.7,2,4c1.8,3,3.8,6,6.5,8.4
		c1.2,1,4.1,3.3,5.4,1.4c2.1-3-2.4-10.1-3.2-12.2c-1.1-2.9,1.5-12.6,2.6-15.7c0.6-1.6,0.8-4.9,1.7-6c0.1,0,0.2-0.1,0.2-0.1
		c1.6,0.4,1.4,2.9,1.9,4.1c0.9,2.5,4.9,12.6,8.9,12.2c2.3-0.2,1.9-5.8,1.6-7.3c-0.5-2.4-1.7-4.5-1.7-7c0-1.8,1.2-3.2,1.4-4.6
		c0.4-2.2,1.7-4.2,2.4-6c0.7-1.9,1.5-3.9,2.5-5.5c0.6-1,0.8-2.7,1.6-3.5c1.7,0.2,1,3.5,1.4,4.7c0.7,2.8,2.9,13.4,6.8,13.4
		c2.5,0,2.8-6.6,2.8-8.6c-0.3-1.5-0.5-3-0.8-4.5c0.1-1.3,0.7-2.1,1.1-3.1c2.1-4.4,4.8-8.2,7.4-11.9c0.7-0.9,2.3-3.9,3.1-4.2
		c0.2,0,0.3,0.1,0.4,0.1c0.7,1.3,0,5,0,6.7c0,2.4-0.4,6.3,1,7c1.4,0.7,9-28.1,50.2-31.6c-14-4.9-46.3-2-73,12.9
		c-63.6,40-93.6,120-67.7,193.9C122.7,394.5,216.7,439.9,302.7,409.9z M182.9,208.7c8.2,0,17.2-0.4,25.9-0.9
		c10.8-8.8,24.5-14.2,39.5-14.2c9.1,0,17.8,2,25.7,5.6c9.5-1,19.6-1.8,29.2-2.3c-9.9-9.2-22.2-16-36.2-19.3
		C234.3,169.7,201.5,183.1,182.9,208.7z M193.8,212.8c-7.8,0.3-11.6,0.4-19.4,0.2v10.1c1.7,0,2.6,0,4.3,0.1v5c0,1.2-1.5,2.7-2.4,3.8
		c-0.2,0.2-0.2,0.2-0.4,0.4c0.1,0.2,0.2,0.2,0.4,0.4c1,1,2.4,2.4,2.4,3.8v7.4c-1.7,0-2.6,0-4.3-0.1v10.1c6.9,0.2,10.4,0.1,17.3-0.1
		v-10.1c-1.7,0.1-2.6,0.1-4.3,0.1v-13.6c4.5,9.4,6.8,14,11.4,23.3c6-0.3,9-0.6,15.1-1.1c0-7,0-10.5,0-17.5c0-1.3,1.4-2.9,2.4-4
		c0.1-0.2,0.2-0.3,0.4-0.4c-0.2-0.1-0.2-0.2-0.4-0.4c-1-0.9-2.4-2.4-2.4-3.6c0-2,0-3,0-5c1.7-0.2,2.6-0.2,4.3-0.4c0-4,0-6.1,0-10.1
		c-6.9,0.7-10.4,0.9-17.3,1.4c0,4,0,6,0,10.1c1.7-0.1,2.6-0.2,4.3-0.3c0,5.4,0,8.2,0,13.6C200.6,226.7,198.4,222.1,193.8,212.8z
		 M178.1,234c-0.2-0.3-0.5-0.7-0.8-0.9c-0.3-0.3-0.7-0.8-0.7-0.8c2.7,0,4,0,6.6,0c0,0-2.1,1-4.3,3.5
		C178.9,235.1,178.5,234.6,178.1,234z M187.2,229.7c0,5.8,0,8.7,0,14.4c-1.5,2-2.3,2.9-3.7,4.9c2.3,0,3.5-0.1,5.8-0.1
		c0.9-1.8,1.3-2.7,2.1-4.6v9c-6.7,0.2-10,0.3-16.7,0.1c1.1-1.8,1.6-2.7,2.7-4.4c2.4,0,3.5,0,5.9,0c0-12.4,0-18.6,0-31
		c-1.7,1.8-2.6,2.8-4.3,4.6c-1.7,0-2.6,0-4.3-0.1c1.3-1.8,2-2.7,3.4-4.6c2.1,0,3.2,0,5.3,0c1.9,0,2.8,0,4.6-0.1
		C187.7,222.7,187.5,225,187.2,229.7z M188.1,218c2.2-1.9,3.4-2.8,5.6-4.7c4.6,9.3,6.8,14,11.4,23.2c-0.9,4.8-1.2,7.1-2.1,11.9
		C197,236.3,194.1,230.3,188.1,218z M201.1,222.1c1.2-1.9,1.8-2.9,2.9-4.8c2.3-0.2,3.4-0.2,5.6-0.4c2-0.2,2.9-0.2,4.8-0.4
		c1.3-2,2-2.9,3.4-4.9c0,3.7,0,5.5,0,9.2c-1.7,0.2-2.6,0.2-4.3,0.4c0,2.1,0,3.2,0,5.4c0,0.4,0.1,0.7,0.2,1.1c-1.6,1.4-2.4,2.1-4,3.5
		c2.5-0.2,3.8-0.3,6.3-0.5c-0.3,0.3-0.6,0.6-0.8,0.9c-0.3,0.4-0.5,0.7-0.8,1.1c-0.5,0.7-0.9,1.6-0.9,2.4V252
		c-5.9,0.5-8.8,0.7-14.6,1.1c1.6-1.9,2.4-2.8,3.9-4.7c2.7-0.2,4.1-0.3,6.8-0.5c0-12.4,0-18.6,0-31c-1.7,2-2.5,3-4.2,5
		C203.7,221.9,202.9,222,201.1,222.1z M181.2,324.5c0,0.1,0,0.3-0.1,0.4c0,0.1-0.1,0.3-0.1,0.4c-0.1,0.2-0.1,0.3-0.2,0.5
		c-0.1,0.1-0.2,0.3-0.3,0.4c-0.2,0.2-0.3,0.5-0.4,0.8c-0.1,0.1-0.1,0.3-0.1,0.4c0,0.3,0,0.5,0,0.7c0,0.1,0,0.3,0.2,0.4
		c0.3,0.1,0.4-0.3,0.6-0.5c0.1-0.2,0.2-0.3,0.3-0.5c0-0.1,0.3-0.4,0.3-0.4c0,0.1,0,0.1,0,0.2c0,0.1-0.1,0.3-0.1,0.4
		c0,0.1-0.1,0.3-0.2,0.4c0,0.1,0,0.2-0.1,0.2c0,0.2-0.2,0.4,0,0.5c0.2,0.1,0.4-0.1,0.5-0.1c0.3-0.2,0.7-0.4,0.9-0.7
		c0.1-0.1,0.1-0.2,0.2-0.3c0.1-0.1,0.2-0.2,0.3-0.3c0.1,0,0.1-0.1,0.2-0.1c0.1,0.1,0,0.4,0,0.6c-0.1,0.1-0.1,0.2-0.2,0.2
		c0,0.1-0.1,0.3-0.2,0.3c-0.1,0.1-0.3,0.2-0.4,0.4c-0.2,0.2-0.3,0.5-0.1,0.6c0.1,0,0.2,0.1,0.3,0.1c0.3,0.1,0.5-0.1,0.8-0.2
		c0.1-0.1,0.2-0.1,0.4-0.2c0.3-0.2,0.5-0.8,0.6-1.1c0-0.1,0.1-0.2,0.1-0.3c0.2-0.5,0.4-1,0.6-1.4c0.1-0.3,0.3-0.6,0.4-0.8
		c0.1-0.2,0.3-0.4,0.5-0.6c0.1-0.1,0.2-0.2,0.4-0.3c0.1-0.1,0.2-0.3,0.2-0.5c0-0.4-0.5-0.7-1.1-0.9c-0.2-0.1-0.3-0.1-0.4-0.1
		c-0.3,0-0.5,0-0.8,0.1c-0.2,0-0.4,0-0.6,0c-0.1,0-0.4,0-0.5-0.1c-0.1-0.2,0.1-0.3,0.2-0.3c0.1,0,0.1-0.1,0-0.2
		c-0.1-0.1-0.4-0.2-0.5-0.2c-0.2,0-0.3,0-0.5,0c-0.3,0-0.7,0-0.8,0.3l0,0.1c0,0.1,0,0.1,0,0.2c0,0.2,0,0.4,0,0.6
		c0,0.2,0,0.3-0.1,0.5C181.2,324.2,181.2,324.3,181.2,324.5z M316.6,337.3c-0.1,0.1-0.2,0.2-0.2,0.3c-0.1,0.1-0.2,0.2-0.4,0.3
		c-0.1,0.1-0.3,0.1-0.4,0.3c-0.1,0.1-0.2,0.3-0.2,0.4c-0.1,0.5,0.1,0.7,0.4,1.1c0.1,0.1,0.2,0.2,0.2,0.3c0.2,0.1,0.4,0.2,0.5,0.2
		c0.4,0.1,0.8,0.1,1.1-0.1c0.1,0,0.3-0.1,0.4-0.2c0.2-0.1,0.3-0.3,0.5-0.4c0.1-0.1,0.3-0.2,0.4-0.3c0.1-0.1,0.1-0.3,0.2-0.4
		c0.1-0.2,0.2-0.3,0.3-0.5c0.1-0.2,0.2-0.5,0.3-0.7l0.1-0.1c0.1-0.2,0.1-0.4,0.2-0.5c0.1-0.2,0.2-0.4,0.2-0.6c0-0.2,0.1-0.3,0.1-0.4
		c0-0.2,0-0.3,0.1-0.5c0-0.1,0.1-0.3,0.1-0.4c0,0,0.1-0.1,0.1-0.1c0.1-0.2,0.1-0.4,0.2-0.5c0.1-0.1,0.2-0.3,0.2-0.5
		c0-0.1-0.1-0.1-0.2-0.1c-0.1,0-0.2,0.2-0.4,0.3c-0.1,0.1-0.1,0.1-0.3,0.2c-0.1,0.1-0.2,0.2-0.3,0.3c-0.1,0.1-0.2,0.2-0.3,0.4
		c-0.1,0.1-0.2,0.3-0.4,0.4c0,0-0.4,0.3-0.4,0.2c-0.1-0.1,0.1-0.6,0.2-0.7c0.2-0.3,0.3-0.7,0.5-0.9c0.1-0.1,0.2-0.2,0.3-0.3
		c0.1-0.1,0.1-0.2,0.2-0.3c0,0,0.2-0.1,0.2-0.3c0-0.1-0.2-0.1-0.3-0.1c-0.2,0.1-0.4,0.2-0.6,0.3c0,0-0.2,0.1-0.2,0
		c0-0.1,0.2-0.3,0.3-0.4c0.1-0.1,0.3-0.2,0.4-0.3c0.1-0.1,0.2-0.2,0.3-0.3c0.1-0.1,0.2-0.1,0.3-0.1c0.1-0.1,0.2-0.2,0.1-0.3
		c-0.1-0.2-0.3-0.2-0.4-0.2c-0.3,0-0.5,0.2-0.7,0.2c-0.1,0-0.2,0-0.3,0c-0.1-0.1,0.1-0.3,0.1-0.3c0.2-0.1,0.4-0.2,0.6-0.4
		c0.1-0.1,0.2-0.2,0.1-0.2c-0.1-0.1-0.4-0.2-0.5-0.2c-0.3-0.1-0.6-0.1-0.8-0.1c-0.2,0-0.3,0.1-0.4,0.1c-0.2,0-0.4,0.1-0.5,0.2
		c-0.1,0-0.2,0.1-0.3,0.1c-0.1,0.1-0.2,0.1-0.3,0.2c-0.1,0.1-0.3,0.3-0.4,0.4c-0.1,0.2-0.3,0.3-0.4,0.5c-0.1,0.1-0.2,0.2-0.2,0.3
		l-0.3,0.3c-0.2,0.2-0.3,0.3-0.5,0.4c-0.1,0.1-0.3,0.2-0.4,0.3c-0.1,0.1-0.3,0.2-0.4,0.2c-0.1,0.1-0.2,0.1-0.3,0.2
		c-0.1,0-0.2,0.1-0.3,0.1c-0.1,0.1-0.3,0.1-0.5,0.2c-0.2,0-0.4,0.1-0.6,0.1c-0.1,0-0.2,0-0.3,0.1c-0.1,0-0.1,0.1-0.2,0.2
		c-0.1,0.1-0.2,0.2-0.2,0.4c0,0,0,0.1,0,0.1c0,0.1,0,0.2,0,0.2c0,0.4,0.2,0.8,0.4,1.1c0.1,0.2,0.3,0.3,0.5,0.4
		c0.2,0.1,0.3,0.3,0.5,0.4c0.3,0.2,0.7,0.3,1,0.3c0.1,0,0.3,0,0.4,0c0.3,0,0.5-0.1,0.7-0.2c0.1,0,0.3-0.1,0.4-0.2
		c0.1-0.1,0.2-0.1,0.3-0.2c0.1-0.1,0.2-0.1,0.3-0.2c0,0,0.3-0.2,0.3-0.1c0,0.1,0,0.3-0.1,0.4C316.9,337.1,316.7,337.2,316.6,337.3z
		 M314.4,302.5c-8.9,0.1-17.8,0.6-26.4,1.4c-4.7,3.9-10,7.1-15.7,9.5c-7.9,3.9-18.6,10.6-20,21.3c-2.2-11.3-16.2-16.9-23.6-19.7
		c-2.3-0.8-4.5-1.6-6.7-2.7c-9.6,0.8-19.8,1.4-29.7,1.9c10.1,9.7,22.8,16.9,37.4,20.4C262.8,342.5,296,328.7,314.4,302.5z
		 M367.9,267.1v-10c-6.5-1.6-9.7-2.2-16.1-3.1v10c1.2,0.2,1.8,0.3,3,0.5v17c-6.9-12-10.4-17.7-17.3-29.1c-5.5-0.4-8.2-0.6-13.7-0.7
		v10c1.2,0,1.8,0,3.1,0.1v24.3c-1.2,0-1.9-0.1-3.1-0.1v10c6.5,0.1,9.7,0.3,16.1,0.9c0-4,0-6,0-10c-1.2-0.1-1.8-0.1-3-0.2v-17
		c6.9,11.4,10.4,17.1,17.3,29.1c5.5,0.9,8.2,1.4,13.7,2.7c0-4,0-6,0-10c-1.2-0.3-1.8-0.4-3.1-0.7v-24.3
		C366.1,266.7,366.7,266.8,367.9,267.1z M252.2,337.1c0,0-0.2,3.9-0.4,5.5c-1.1,9.2-8.2,20-9,22.1c-0.8,1.9-1.2,3.3-1.2,4.8
		c0,5.8,4.7,10.5,10.5,10.5c5.8,0,10.5-4.7,10.5-10.5c0-1.6-0.5-2.8-1.3-5.1c-1.3-3.5-8-13-8.8-21.9
		C252.3,338.9,252.2,337.1,252.2,337.1z M253.9,374.8c1.9-0.3,3.9-2,4.6-4.2c0.2-0.7,1-1.1,1.7-0.8c0.7,0.2,1,1,0.8,1.7
		c-1,3-3.8,5.5-6.7,5.9c0,0-0.1,0-0.2,0c-0.6,0-1.2-0.5-1.3-1.1C252.7,375.5,253.2,374.9,253.9,374.8z M367.7,224.1v-16.5
		c-14.5-3.6-30.6-5.4-45.5-5.4v10.1c2.5,0.1,3.7,0.1,6.2,0.2v4.9c0,1.3-1.4,2.7-2.3,3.8c-0.2,0.1-0.2,0.2-0.4,0.4
		c0.1,0.1,0.2,0.2,0.4,0.4c0.9,1.1,2.3,2.5,2.3,3.9v7.4c-2.5-0.1-3.7-0.1-6.2-0.2v10.1c14.9,0,31,1.8,45.5,5.4v-17.7
		c-4.2-1-6.3-1.4-10.5-2.2v7.6c-5.7-1-8.5-1.4-14.3-2c0-2.4,0-3.5,0-5.9c3.2,0.4,4.8,0.5,8,1v-8.4c-3.2-0.5-4.8-0.7-8.1-1v-6.6
		c5.7,0.6,8.6,1,14.3,2v6.6C361.4,222.6,363.5,223.1,367.7,224.1z M327.9,223.4c-0.3-0.4-0.5-0.7-0.8-1c-0.2-0.3-0.7-0.8-0.7-0.8
		c3.7,0.1,5.5,0.2,9.2,0.5c0,0-4.6,1.1-6.8,3.2C328.6,224.6,328.3,223.9,327.9,223.4z M342.6,212.9v7.1c-2.7,1.3-4.1,1.9-6.9,3.3
		c5,0.4,7.4,0.6,12.4,1.2c1-1.3,1.5-1.9,2.5-3.2v7.3c-3.2-0.4-4.8-0.7-8-1v6.6c-2.8,1.7-4.2,2.5-7,4.3c10.7,0.8,16,1.4,26.7,3.6
		v-7.3c2-1.6,3-2.4,4.9-4c0,0,0.1,0,0.1,0c0,6.7,0,10.1,0,16.8c-14.3-3.5-30.1-5.3-44.9-5.3c1.5-1.8,2.2-2.7,3.6-4.4
		c3.8,0.1,5.7,0.2,9.4,0.5v-30.9c-2.7,1.8-4.1,2.7-6.8,4.5V212c-2.5-0.1-3.7-0.1-6.1-0.2c1.5-1.8,2.2-2.7,3.7-4.5
		c3.7,0.1,5.5,0.2,9.2,0.4c10.8,0.8,16.1,1.4,26.9,3.7c1.9-1.4,2.9-2.1,4.9-3.4v15.5c-3.9-0.9-5.8-1.3-9.6-2c1.9-1.3,2.8-2,4.7-3.3
		v-6.8c-2,1.4-3,2.2-5,3.6C351.6,213.9,348.6,213.5,342.6,212.9z M322.4,342.7c-0.2,0.1-0.4,0.1-0.6,0.1c-0.1,0-0.2,0.1-0.3,0.1
		c-0.1,0.1-0.3,0.1-0.4,0.1c-0.1,0-0.2,0.1-0.3,0.1c-0.1,0-0.2,0.1-0.3,0.1c-0.1,0-0.2,0-0.2,0c-0.1,0-0.1,0.1,0,0.2
		c0.1,0.1,0.5,0.2,0.6,0.3c0.3,0,0.6,0,0.8-0.1c0.1-0.1,0.2-0.2,0.3-0.2c0.2-0.2,0.4-0.4,0.7-0.5c0.1,0,0.3-0.1,0.4,0l0.3,0.1
		c0.2,0,0.3,0,0.5,0c0.1,0,0.3,0.1,0.4,0.2c0.2,0.1,0.3,0.2,0.5,0.2c0.4,0,0.6-0.3,0.8-0.5c0.1-0.1,0.2-0.2,0.3-0.4
		c0-0.1,0.1-0.3,0.1-0.4c0-0.2,0-0.4,0-0.5c0-0.2,0.1-0.3,0.1-0.4c0.1-0.2,0-0.5,0-0.7c0-0.3-0.1-0.6-0.3-0.8c0-0.1-0.2-0.2-0.3-0.1
		c-0.1,0.1-0.2,0.5-0.3,0.7c-0.1,0.2-0.2,0.4-0.3,0.7c0,0.1-0.1,0.2-0.1,0.2c-0.1,0.2-0.2,0.4-0.3,0.5c-0.1,0.1-0.2,0.2-0.3,0.2
		c-0.1,0-0.4,0.3-0.6,0.2c0,0,0-0.1,0.1-0.2c0-0.1,0.2-0.1,0.2-0.2c0.1-0.1,0.1-0.3,0.2-0.4c0.1-0.1,0.2-0.3,0.3-0.4
		c0-0.1,0.1-0.1,0.1-0.2c0-0.1,0-0.1,0-0.2c0-0.1,0-0.3,0-0.4l0.1-0.3c0.1-0.3,0.2-0.6,0.3-0.8c0-0.2,0-0.4,0-0.5
		c0-0.1-0.1-0.2-0.1-0.3c-0.1-0.1-0.1-0.3-0.2-0.4c-0.1-0.2-0.2-0.3-0.3-0.5c-0.1-0.2-0.1-0.3-0.2-0.5c0-0.1,0-0.1-0.1-0.2
		c-0.1-0.1-0.2,0.2-0.3,0c0-0.1-0.1-0.2-0.1-0.3c-0.1-0.1-0.1-0.2-0.1-0.3c0-0.1,0-0.2-0.1-0.2c-0.1-0.1-0.2,0.4-0.2,0.4
		c0,0.2-0.1,0.4-0.2,0.6c0,0.1-0.1,0.2-0.1,0.2c0,0.1-0.1,0.1-0.1,0.2c-0.1,0.2-0.1,0.4-0.2,0.5c-0.1,0.1-0.2,0.5-0.3,0.5
		c-0.1,0-0.1-0.2-0.1-0.2c0-0.2,0-0.4,0.1-0.7c0-0.1,0.1-0.3,0.1-0.4c0-0.2,0-0.4,0-0.6c0-0.2,0.1-0.3,0.2-0.5c0-0.1,0-0.3,0-0.4
		c0-0.1,0-0.4-0.1-0.5c-0.1,0-0.2,0.1-0.2,0.1c-0.2,0.1-0.3,0.2-0.4,0.4c-0.1,0.2-0.2,0.5-0.4,0.5c-0.1,0-0.1-0.1-0.1-0.2
		c0-0.2,0.1-0.4,0.1-0.6c0-0.1,0.1-0.3,0-0.3c-0.1,0-0.1,0.1-0.2,0.1c-0.3,0.2-0.5,0.7-0.6,1.2c-0.1,0.5-0.2,1-0.4,1.6
		c-0.1,0.2-0.1,0.4-0.2,0.5c-0.1,0.2-0.4,0.3-0.5,0.5c-0.1,0.1-0.2,0.2-0.3,0.3c-0.1,0.2-0.2,0.3-0.3,0.4c0,0.1-0.1,0.2-0.1,0.3
		c-0.1,0.2-0.2,0.3-0.3,0.5c0,0.3-0.2,0.7-0.1,0.9c0.2,0.3,0.6,0.6,1.1,0.7c0.1,0.1,0.3,0.1,0.4,0.1c0.4,0.1,0.8,0.1,1.1,0.1
		c0.2,0,0.4-0.1,0.5-0.1c0.1,0,0.2-0.1,0.3-0.1c0.1,0,0.3,0,0.3,0.2C322.8,342.4,322.5,342.7,322.4,342.7z M334,333.8
		c0.3-0.2,0.6-0.9,0.5-1.2c-0.1-0.3-0.4-0.9-0.9-0.8c-0.2,0-0.4,0.2-0.5,0.4c-0.1,0.1-0.2,0.1-0.4,0.2c-0.1,0.1-0.2,0.1-0.3,0.2
		c-0.1,0.1-0.3,0.1-0.4,0.2c-0.2,0.1-0.4,0.2-0.6,0.2c-0.1,0.1-0.3,0.1-0.4,0.1c-0.1,0-0.2,0-0.4,0.1c-0.3,0-0.5,0.1-0.8,0.1
		c-0.1,0-0.2,0-0.4,0c-0.2,0-0.3,0-0.5,0c-0.2,0-0.3-0.1-0.5-0.2c-0.2,0-0.3-0.1-0.4-0.1c-0.1,0-0.5-0.2-0.6,0
		c0,0.1,0.1,0.2,0.2,0.3c0.3,0.2,0.7,0.4,1.1,0.5c0.1,0.1,0.4,0.2,0.4,0.3c0,0.1-0.3,0.1-0.4,0.1c-0.2,0-0.4,0-0.7-0.1
		c-0.3,0-0.6-0.3-0.8-0.3c-0.2,0-0.5,0.1-0.4,0.3c0.1,0.2,0.4,0.3,0.6,0.5c0.2,0.1,0.3,0.3,0.6,0.5c0.1,0.1,0.2,0.2,0.4,0.2
		c0.1,0,0.3,0.1,0.4,0.1c0.1,0.1,0.2,0.1,0.3,0.1c0.1,0,0.2,0,0.3,0.1c0.1,0,0.4,0,0.5,0.2c0,0,0,0.1,0,0.1
		c-0.1,0.2-0.5,0.1-0.7,0.2c-0.2,0-0.3,0-0.5,0c-0.2,0-0.3-0.1-0.5-0.2c-0.1,0-0.2-0.1-0.2-0.1c-0.1,0-0.2-0.1-0.3-0.1
		c-0.2-0.1-0.4-0.2-0.5-0.3c-0.1-0.1-0.3-0.2-0.3-0.3c-0.1-0.1-0.2-0.2-0.3-0.3c-0.1-0.1-0.2-0.1-0.3-0.2c-0.1,0-0.2-0.1-0.3-0.1
		c-0.3,0-0.5,0.2-0.7,0.5c0,0.1-0.1,0.3-0.1,0.4c0,0.2,0,0.3-0.1,0.5c0,0.1-0.1,0.3-0.1,0.4c0,0.2,0.1,0.3,0.1,0.4
		c0,0.1,0.1,0.3,0.1,0.4c0,0.1,0.1,0.2,0.2,0.4c0,0.1,0.1,0.2,0.2,0.3c0.2,0.3,0.4,0.6,0.6,0.9c0.1,0.1,0.2,0.3,0.4,0.4
		c0.1,0.1,0.1,0.2,0.2,0.3c0.1,0.1,0.2,0.2,0.3,0.3c0.1,0.1,0.3,0.2,0.4,0.3c0.1,0,0.2,0.1,0.3,0.1c0.1,0.1,0.3,0.1,0.4,0.2
		c0.1,0,0.2,0,0.3,0c0.2,0,0.4-0.1,0.6-0.2c0.1,0,0.2-0.1,0.4-0.2c0.2-0.2,0.4-0.5,0.6-0.7c0.1-0.1,0.2-0.2,0.4-0.3
		c0.1-0.1,0.2-0.3,0.3-0.4c0.2-0.2,0.4-0.3,0.6-0.4c0.1,0,0.2-0.2,0.3-0.2c0.1,0,0.3,0,0.4-0.1c0.2,0,0.2-0.1,0.4-0.2
		c0.1-0.1,0.2-0.1,0.3-0.2c0.1-0.1,0.3-0.3,0.4-0.4c0.1-0.2,0.2-0.3,0.2-0.5c0.1-0.2,0.2-0.4,0.3-0.6c0-0.2,0-0.3,0-0.5
		c0.1-0.1,0.1-0.3,0.1-0.4c0-0.3,0-0.4,0-0.6C333.6,334,333.8,333.9,334,333.8z M161.1,306.2c5.5,0.4,8.2,0.6,13.7,0.7v-10
		c-1.2,0-1.8-0.1-3-0.1v-24.3c1.2,0,1.8,0,3,0.1v-10c-6.4-0.2-9.7-0.3-16.1-0.9v10c1.2,0.1,1.8,0.2,3,0.3v17
		c-6.9-11.3-10.3-17.1-17.3-29c-5.5-0.9-8.2-1.4-13.7-2.7v10c1.2,0.3,1.8,0.4,3.1,0.7v24.3c-1.2-0.3-1.8-0.4-3.1-0.7v10
		c6.4,1.5,9.6,2.2,16.1,3.1v-10c-1.2-0.2-1.8-0.3-3-0.4v-17C150.7,289,154.2,294.8,161.1,306.2z M183.3,218.1L183.3,218.1
		C183.3,218.1,183.3,218.1,183.3,218.1C183.3,218.1,183.3,218.1,183.3,218.1z M168.4,191.4l6.5,9.5l0.3-11.5l11-3.3l-10.8-3.8
		l0.2-11.5l-7,9.2l-10.8-3.8l6.5,9.4l-7,9.2L168.4,191.4z M188.3,333.8c0.2-0.2,0.6-0.9,0.4-1.2c-0.1-0.3-0.4-0.9-0.9-0.8
		c-0.2,0-0.3,0.2-0.5,0.4c-0.1,0.1-0.2,0.1-0.3,0.2c-0.1,0.1-0.2,0.1-0.3,0.2c-0.1,0.1-0.3,0.1-0.5,0.2c-0.2,0.1-0.4,0.2-0.6,0.2
		c-0.1,0.1-0.2,0.1-0.4,0.1c-0.1,0-0.3,0-0.4,0.1c-0.3,0-0.5,0.1-0.8,0.1c-0.1,0-0.3,0-0.4,0c-0.2,0-0.4,0-0.5,0
		c-0.1,0-0.3-0.1-0.5-0.2c-0.2,0-0.3-0.1-0.5-0.1c-0.1,0-0.5-0.2-0.5,0c0,0.1,0.1,0.2,0.2,0.3c0.3,0.2,0.7,0.4,1.1,0.5
		c0.1,0.1,0.4,0.2,0.4,0.3c0,0.1-0.3,0.1-0.4,0.1c-0.2,0-0.5,0-0.7-0.1c-0.3,0-0.6-0.3-0.8-0.3c-0.1,0-0.4,0.1-0.4,0.3
		c0.1,0.2,0.4,0.3,0.6,0.5c0.2,0.1,0.4,0.3,0.6,0.5c0.1,0.1,0.2,0.2,0.4,0.2c0.1,0,0.3,0.1,0.4,0.1c0.1,0.1,0.2,0.1,0.3,0.1
		c0.1,0,0.2,0,0.3,0.1c0.1,0,0.4,0,0.5,0.2c0,0,0,0.1,0,0.1c-0.1,0.2-0.5,0.1-0.7,0.2c-0.2,0-0.3,0-0.5,0c-0.1,0-0.3-0.1-0.4-0.2
		c-0.1,0-0.2-0.1-0.3-0.1c-0.1,0-0.2-0.1-0.3-0.1c-0.2-0.1-0.3-0.2-0.5-0.3c-0.1-0.1-0.2-0.2-0.3-0.3c-0.1-0.1-0.2-0.2-0.3-0.3
		c-0.1-0.1-0.1-0.1-0.2-0.2c-0.1,0-0.2-0.1-0.3-0.1c-0.3,0-0.5,0.2-0.7,0.5c0,0.1-0.1,0.3-0.1,0.4c0,0.2,0,0.3-0.1,0.5
		c0,0.1-0.1,0.3-0.1,0.4c0,0.2,0,0.3,0.1,0.4c0,0.1,0.1,0.3,0.1,0.4c0,0.1,0.1,0.2,0.2,0.4c0.1,0.1,0.1,0.2,0.2,0.3
		c0.2,0.3,0.4,0.6,0.6,0.9c0.1,0.1,0.2,0.3,0.4,0.4c0,0.1,0.1,0.2,0.2,0.3c0.1,0.1,0.2,0.2,0.3,0.3c0.1,0.1,0.2,0.2,0.4,0.3
		c0.1,0,0.2,0.1,0.3,0.1c0.1,0.1,0.3,0.1,0.4,0.2c0.1,0,0.2,0,0.3,0c0.2,0,0.4-0.1,0.6-0.2c0.1,0,0.2-0.1,0.4-0.2
		c0.2-0.2,0.4-0.5,0.5-0.7c0.1-0.1,0.3-0.2,0.4-0.3c0.1-0.1,0.2-0.3,0.3-0.4c0.2-0.2,0.4-0.3,0.6-0.4c0.1,0,0.2-0.2,0.3-0.2
		c0.1,0,0.3,0,0.4-0.1c0.1,0,0.2-0.1,0.4-0.2c0.1-0.1,0.2-0.1,0.3-0.2c0.1-0.1,0.3-0.3,0.4-0.4c0.1-0.2,0.1-0.3,0.2-0.5
		c0.1-0.2,0.2-0.4,0.2-0.6c0-0.2,0-0.3,0.1-0.5c0-0.1,0-0.3,0.1-0.4c0-0.3,0-0.4,0-0.6C187.9,334,188.2,333.9,188.3,333.8z
		 M170.9,337.3c-0.1,0.1-0.2,0.2-0.3,0.3c-0.1,0.1-0.2,0.2-0.4,0.3c-0.2,0.1-0.3,0.1-0.4,0.3c-0.1,0.1-0.2,0.3-0.2,0.4
		c-0.1,0.5,0.1,0.7,0.4,1.1c0.1,0.1,0.2,0.2,0.2,0.3c0.2,0.1,0.4,0.2,0.6,0.2c0.4,0.1,0.8,0.1,1.1-0.1c0.1,0,0.3-0.1,0.4-0.2
		c0.2-0.1,0.3-0.3,0.5-0.4c0.1-0.1,0.3-0.2,0.4-0.3c0.1-0.1,0.1-0.3,0.2-0.4c0.1-0.2,0.2-0.3,0.3-0.5c0.1-0.2,0.2-0.5,0.3-0.7l0-0.1
		c0.1-0.2,0.1-0.4,0.2-0.5c0.1-0.2,0.2-0.4,0.2-0.6c0-0.2,0.1-0.3,0.1-0.4c0-0.2,0-0.3,0.1-0.5c0-0.1,0.1-0.3,0.2-0.4
		c0,0,0-0.1,0.1-0.1c0.1-0.2,0.2-0.4,0.2-0.5c0.1-0.1,0.2-0.3,0.2-0.5c0-0.1-0.1-0.1-0.2-0.1c-0.1,0-0.3,0.2-0.4,0.3
		c-0.1,0.1-0.2,0.1-0.3,0.2c-0.1,0.1-0.3,0.2-0.4,0.3c-0.1,0.1-0.2,0.2-0.3,0.4c-0.1,0.1-0.2,0.3-0.3,0.4c-0.1,0-0.4,0.3-0.4,0.2
		c-0.1-0.1,0.1-0.6,0.2-0.7c0.2-0.3,0.4-0.7,0.6-0.9c0.1-0.1,0.2-0.2,0.3-0.3c0.1-0.1,0.2-0.2,0.2-0.3c0.1,0,0.2-0.1,0.2-0.3
		c0-0.1-0.2-0.1-0.2-0.1c-0.2,0.1-0.4,0.2-0.7,0.3c0,0-0.2,0.1-0.2,0c0-0.1,0.3-0.3,0.3-0.4c0.1-0.1,0.3-0.2,0.4-0.3
		c0.1-0.1,0.2-0.2,0.3-0.3c0.1-0.1,0.2-0.1,0.3-0.1c0.1-0.1,0.2-0.2,0.1-0.3c-0.1-0.2-0.3-0.2-0.4-0.2c-0.3,0-0.5,0.2-0.7,0.2
		c-0.1,0-0.2,0-0.3,0c-0.1-0.1,0.1-0.3,0.1-0.3c0.2-0.1,0.4-0.2,0.6-0.4c0.1-0.1,0.2-0.2,0.1-0.2c-0.1-0.1-0.4-0.2-0.5-0.2
		c-0.3-0.1-0.6-0.1-0.8-0.1c-0.2,0-0.3,0.1-0.4,0.1c-0.2,0-0.4,0.1-0.5,0.2c-0.1,0-0.2,0.1-0.3,0.1c-0.1,0.1-0.2,0.1-0.4,0.2
		c-0.1,0.1-0.2,0.3-0.4,0.4c-0.1,0.2-0.3,0.3-0.4,0.5c0,0.1-0.1,0.2-0.2,0.3c-0.1,0.1-0.2,0.2-0.2,0.3c-0.2,0.2-0.4,0.3-0.5,0.4
		c-0.1,0.1-0.3,0.2-0.4,0.3c-0.1,0.1-0.3,0.2-0.4,0.2c-0.1,0.1-0.2,0.1-0.3,0.2c-0.1,0-0.2,0.1-0.3,0.1c-0.2,0.1-0.3,0.1-0.5,0.2
		c-0.2,0-0.4,0.1-0.5,0.1c-0.1,0-0.2,0-0.3,0.1c-0.1,0-0.2,0.1-0.2,0.2c-0.1,0.1-0.1,0.2-0.2,0.4c0,0,0,0.1,0,0.1c0,0.1,0,0.2,0,0.2
		c0,0.4,0.2,0.8,0.4,1.1c0.1,0.2,0.3,0.3,0.5,0.4c0.1,0.1,0.3,0.3,0.5,0.4c0.3,0.2,0.7,0.3,1,0.3c0.1,0,0.3,0,0.4,0
		c0.3,0,0.5-0.1,0.8-0.2c0.1,0,0.3-0.1,0.4-0.2c0.1-0.1,0.2-0.1,0.3-0.2c0.1-0.1,0.2-0.1,0.3-0.2c0.1,0,0.3-0.2,0.3-0.1
		c0.1,0.1,0,0.3-0.1,0.4C171.2,337.1,171,337.2,170.9,337.3z M176.7,342.7c-0.2,0.1-0.4,0.1-0.6,0.1c-0.1,0-0.2,0.1-0.4,0.1
		c-0.1,0.1-0.2,0.1-0.4,0.1c-0.1,0-0.2,0.1-0.3,0.1c-0.1,0-0.2,0.1-0.3,0.1c0,0-0.2,0-0.2,0c-0.1,0-0.1,0.1,0,0.2
		c0.2,0.1,0.5,0.2,0.6,0.3c0.3,0,0.7,0,0.9-0.1c0.1-0.1,0.2-0.2,0.3-0.2c0.2-0.2,0.4-0.4,0.7-0.5c0.1,0,0.3-0.1,0.4,0l0.3,0.1
		c0.2,0,0.3,0,0.5,0c0.1,0,0.3,0.1,0.4,0.2c0.2,0.1,0.4,0.2,0.5,0.2c0.4,0,0.6-0.3,0.8-0.5c0.1-0.1,0.2-0.2,0.3-0.4
		c0-0.1,0.1-0.3,0.1-0.4c0-0.2,0-0.4,0.1-0.5c0-0.2,0.1-0.3,0.1-0.4c0-0.2,0-0.5,0-0.7c0-0.3-0.1-0.6-0.3-0.8c0-0.1-0.2-0.2-0.3-0.1
		c-0.1,0.1-0.2,0.5-0.3,0.7c-0.1,0.2-0.2,0.4-0.3,0.7c0,0.1,0,0.2-0.1,0.2c0,0.2-0.1,0.4-0.2,0.5c-0.1,0.1-0.2,0.2-0.4,0.2
		c-0.1,0-0.4,0.3-0.6,0.2c0,0,0-0.1,0-0.2c0.1-0.1,0.2-0.1,0.2-0.2c0.1-0.1,0.1-0.3,0.2-0.4c0.1-0.1,0.2-0.3,0.3-0.4
		c0-0.1,0.1-0.1,0.1-0.2c0-0.1,0.1-0.1,0.1-0.2c0-0.1,0-0.3,0-0.4c0-0.1,0-0.2,0.1-0.3c0.1-0.3,0.3-0.6,0.3-0.8c0-0.2,0.1-0.4,0-0.5
		c0-0.1,0-0.2-0.1-0.3c0-0.1-0.1-0.3-0.1-0.4c-0.1-0.2-0.2-0.3-0.3-0.5c0-0.2-0.1-0.3-0.2-0.5c0-0.1,0-0.1-0.1-0.2
		c-0.1-0.1-0.2,0.2-0.3,0c-0.1-0.1-0.1-0.2-0.1-0.3c0-0.1-0.1-0.2-0.1-0.3c0-0.1,0-0.2-0.1-0.2c-0.1-0.1-0.2,0.4-0.2,0.4
		c-0.1,0.2-0.1,0.4-0.2,0.6c0,0.1-0.1,0.2-0.1,0.2c0,0.1,0,0.1-0.1,0.2c-0.1,0.2-0.1,0.4-0.2,0.5c-0.1,0.1-0.2,0.5-0.3,0.5
		c0,0,0-0.2,0-0.2c0-0.2,0-0.4,0.1-0.7c0.1-0.1,0.1-0.3,0.1-0.4c0-0.2,0-0.4,0-0.6c0.1-0.2,0.1-0.3,0.2-0.5c0-0.1,0-0.3,0-0.4
		c0-0.1,0-0.4-0.1-0.5c-0.1,0-0.1,0.1-0.2,0.1c-0.2,0.1-0.3,0.2-0.4,0.4c-0.1,0.2-0.3,0.5-0.5,0.5c-0.1,0-0.1-0.1-0.1-0.2
		c0-0.2,0.1-0.4,0.1-0.6c0-0.1,0-0.3,0-0.3c0,0-0.1,0.1-0.1,0.1c-0.3,0.2-0.6,0.7-0.7,1.2c-0.1,0.5-0.2,1-0.4,1.6
		c-0.1,0.2-0.1,0.4-0.2,0.5c-0.1,0.2-0.3,0.3-0.5,0.5c-0.1,0.1-0.1,0.2-0.2,0.3c-0.1,0.2-0.2,0.3-0.3,0.4c-0.1,0.1-0.1,0.2-0.2,0.3
		c-0.1,0.2-0.2,0.3-0.3,0.5c0,0.3-0.2,0.7-0.1,0.9c0.2,0.3,0.6,0.6,1,0.7c0.2,0.1,0.3,0.1,0.5,0.1c0.4,0.1,0.8,0.1,1.2,0.1
		c0.2,0,0.3-0.1,0.5-0.1c0.1,0,0.2-0.1,0.4-0.1c0.1,0,0.3,0,0.3,0.2C177.1,342.4,176.8,342.7,176.7,342.7z M287.8,43.5
		c1-0.5,1.9-1.2,2.7-2.1c0.8-0.9,1.6-1.8,2.4-2.9c0.8-1,1.5-2,2.3-2.8c-0.7,0.2-1.6,0.6-2.6,1.2c-1,0.5-2,1.2-3,2
		c-1,0.8-2,1.6-3,2.5c-1,0.9-1.9,1.8-2.6,2.7c0.1,0,0.3,0,0.5,0.1C285.7,44.2,286.8,44,287.8,43.5z M323.8,329.6
		c0,0,0.1-0.1,0.1-0.1c0-0.1-0.2-0.2-0.3-0.2c-0.2,0-0.5,0-0.6,0.3c0,0.1,0.2,0.1,0.3,0.2C323.5,329.7,323.7,329.7,323.8,329.6z
		 M326,329.5c0,0,0.1-0.1,0.1-0.2c0-0.1-0.2-0.2-0.3-0.2c-0.2,0-0.4,0.1-0.6,0.2c-0.1,0-0.2,0-0.2,0.1c0,0.1,0.2,0.2,0.3,0.2
		c0.1,0,0.3-0.1,0.4-0.1C325.8,329.6,325.9,329.6,326,329.5z M325.7,333.6c0.1,0,0.2-0.2,0.3-0.3c0.1-0.1,0.2-0.1,0.3-0.1
		c0.1-0.1,0.1-0.2,0.1-0.3c-0.1-0.1-0.2-0.1-0.3-0.1c-0.2,0.1-0.5,0.2-0.6,0.5c0,0,0,0.1,0,0.1C325.4,333.5,325.6,333.6,325.7,333.6
		z M321.8,330.8c0,0-0.1-0.1-0.1-0.1c-0.2,0-0.3,0.2-0.4,0.4c0,0,0,0.1,0,0.2c0,0.2,0.2,0.3,0.2,0.5c0,0.1,0,0.3,0.1,0.4
		c0,0.1,0.1,0.3,0.2,0.3c0.1,0,0.1-0.3,0.1-0.4c0-0.2-0.2-0.4-0.1-0.7C321.7,331.2,321.8,330.9,321.8,330.8z M322.2,333.3
		c-0.1,0-0.2-0.1-0.3,0c0,0.1,0.2,0.3,0.3,0.4c0.1,0.1,0.2,0.1,0.3,0.1c0.1,0,0.3,0.1,0.3,0c0,0,0-0.1,0-0.1
		C322.8,333.4,322.4,333.4,322.2,333.3z M327,329.9c0.1-0.1-0.2-0.4-0.2-0.2C326.7,329.8,326.7,329.9,327,329.9
		C326.9,330,327,330,327,329.9z M323.7,333.8C323.7,333.8,323.7,333.9,323.7,333.8c-0.1,0.3,0,0.3,0.2,0.3c0.2,0,0.4-0.1,0.6-0.2
		c0.1,0,0.2-0.1,0.1-0.3c0-0.1-0.2-0.1-0.3-0.1c-0.1,0-0.2,0.1-0.3,0.1C323.9,333.7,323.8,333.7,323.7,333.8z M325.4,331.5
		c0-0.3-0.4-0.3-0.6-0.3c-0.2,0-0.5-0.1-0.7,0c-0.1,0-0.3,0.2-0.4,0.3c-0.1,0.1-0.2,0.1-0.2,0.3c0,0,0,0.1,0,0.1
		c0,0.1,0.2,0.4,0.4,0.4c0.2,0,0.3,0.1,0.5,0.1c0.3,0,0.6-0.2,0.8-0.3C325.2,331.9,325.4,331.7,325.4,331.5z M206.6,463.4
		c-1,0.8-2,1.6-3,2.5c-1,0.9-1.8,1.8-2.5,2.7c0.1,0,0.3,0,0.5,0.1c1.2,0.2,2.2,0,3.2-0.6c1-0.5,1.9-1.2,2.7-2.1
		c0.9-0.9,1.6-1.8,2.4-2.9c0.8-1,1.5-1.9,2.3-2.8c-0.8,0.2-1.6,0.6-2.6,1.1C208.7,462,207.7,462.7,206.6,463.4z M295,458.7
		c-0.7-0.1-1.3,0.2-2,1c-0.7,0.8-1.3,1.9-1.9,3.1c-0.6,1.3-1.1,2.7-1.5,4.2c-0.4,1.5-0.7,2.9-0.9,4.2c-0.2,1.3-0.2,2.3-0.1,3.2
		c0.1,0.8,0.4,1.2,0.9,1.1c0.5-0.1,1-0.6,1.5-1.3c0.5-0.7,1-1.7,1.4-2.7c0.5-1.1,0.8-2.2,1.2-3.4c0.3-1.2,0.6-2.3,0.7-3.3
		c0.1-1,0.1-1.9,0-2.6c-0.1-0.7-0.4-1-0.9-1.1c0.9-0.2,1.4-0.3,2.3-0.5c0-0.5-0.1-0.9-0.2-1.2C295.5,459,295.3,458.8,295,458.7z
		 M259.3,464.8c0.2-0.4,0.4-0.6,0.6-0.8c-0.4,0-0.9,0.3-1.6,0.7c-0.6,0.4-1.2,1.1-1.9,1.8c-0.7,0.8-1.3,1.6-2,2.6
		c-0.7,0.9-1.3,1.9-1.9,2.9c-0.6,1-1.1,2-1.5,2.9c-0.4,1-0.8,1.8-1,2.6c-0.2,0.7-0.3,1.3-0.3,1.8c0.1,0.4,0.3,0.7,0.7,0.6
		c0.5,0,1-0.2,1.6-0.5c0.5-0.3,1-0.7,1.6-1.2c0.5-0.5,1-1.1,1.5-1.7c0.5-0.7,0.9-1.4,1.4-2.1c-0.1-0.5-0.2-1-0.1-1.5
		c0-0.5,0.1-1,0.2-1.5c0.1-0.5,0.3-1.1,0.4-1.6c0.2-0.6,0.4-1.3,0.6-1.9c0.3-0.6,0.6-1.2,0.8-1.7C258.8,465.6,259,465.2,259.3,464.8
		z M362.7,419.7c3.9-15.1,5.8-22.6,9.8-37.7c-14.9,16.2-33.5,28.8-53.7,37.2c1.5,3.9,2.7,7.2,3.9,10.4c-24.7,11-49,16.5-76.1,17.2
		c-25.3,0.6-52.7-5.1-76.3-16.7c1.2-3.3,2.5-6.8,4.1-10.9c-20.3-8.5-38.9-21-53.8-37.2c4,15.1,6,22.6,9.8,37.7
		c-14.4,0.2-21.6,0.5-36.1,1.4c15.6,12.9,32.9,24.1,51.4,32.6c-1.7,3.2-3.4,6.4-5,9.6c32.6,17,69.1,25.7,105.8,25.7
		c36.5,0,72.9-8.6,105.3-25.4c-1.6-3.2-3.3-6.5-5-9.7c18.6-8.5,36.5-19.3,51.9-32.7C384.3,420.2,377.1,420,362.7,419.7z
		 M203.6,453.3c0.1-0.4,0.4-0.9,0.7-1.5c0.4-0.5,0.9-1,1.5-1.5c0.9,0.1,1.6,0.3,2.2,0.5c0.6,0.3,0.9,0.6,0.9,1.1
		c0,0.4-0.3,0.9-0.9,1.5c-0.7,0.6-1.8,1.2-3.4,1.9c-0.5-0.1-0.8-0.4-0.9-0.7C203.5,454.2,203.5,453.8,203.6,453.3z M177.8,465.5
		c-2.2,0.5-4.3,0.7-6.4,0.5c-2.1-0.1-4.1-0.5-5.9-1.4c-1.9-0.9-3.3-2-4.2-3.1c-0.9-1.1-1.4-2.3-1.4-3.4c-0.1-1.1,0.2-2.1,0.8-3.1
		c0.6-0.9,1.5-1.7,2.5-2.2c1.1-0.5,2.3-0.7,3.7-0.7c1.4,0.1,2.8,0.5,4.3,1.4c-0.3-0.1-0.8-0.1-1.6,0.3c-0.7,0.3-1.5,0.8-2.3,1.4
		c-0.8,0.6-1.6,1.3-2.3,2.1c-0.7,0.8-1.2,1.6-1.5,2.4c-0.3,0.8-0.2,1.6,0.1,2.3c0.3,0.7,1.2,1.3,2.4,1.8c1.3,0.4,2.8,0.6,4.5,0.4
		c1.7-0.2,3.5-0.6,5.4-1.2c1.9-0.6,3.8-1.4,5.7-2.4c1.9-1,3.7-2,5.4-3.2c1.7-1.2,3.2-2.4,4.5-3.6c1.3-1.2,2.3-2.5,3-3.6
		c0.7-1.2,1-2.3,0.9-3.3c-0.1-1-0.7-1.9-1.8-2.6c-1.8-1.1-3.4-1.6-5.1-1.8c-1.6-0.1-3.1,0-4.5,0.4c-1.4,0.4-2.7,1-3.8,1.7
		c-1.1,0.8-2,1.5-2.7,2.3c-0.7,0.8-1.2,1.5-1.5,2.1c-0.3,0.6-0.3,1,0,1.1c-1.1-0.3-2-0.6-2.4-1.2c-0.5-0.6-0.7-1.2-0.6-1.9
		c0.1-0.7,0.4-1.5,1-2.2c0.6-0.8,1.4-1.5,2.4-2.1c1-0.6,2.2-1.2,3.5-1.6c1.3-0.4,2.8-0.6,4.3-0.6c1.5,0,3.2,0.3,4.9,0.8
		c1.7,0.5,3.4,1.3,5.1,2.5c1.7,1.2,2.7,2.4,3.1,3.8c0.4,1.4,0.4,2.8-0.1,4.3c-0.5,1.4-1.4,2.9-2.7,4.3c-1.3,1.4-2.9,2.7-4.6,3.9
		c-1.8,1.2-3.7,2.3-5.8,3.2C182.1,464.4,180,465.1,177.8,465.5z M187.6,443.4c0.9,0.4,1.6,0.7,2.1,1.1c0.5,0.4,0.9,0.7,1.2,1.1
		c0.3,0.4,0.5,0.8,0.6,1.2c-0.8,0.5-1.8,1.1-3,1.8c-1.2,0.7-2.4,1.5-3.8,2.3c-1.4,0.8-2.8,1.7-4.2,2.6c-1.5,0.9-2.9,1.9-4.2,2.8
		c-1.3,0.9-2.6,1.8-3.8,2.6c-1.1,0.8-2.2,1.5-3,2.2c-0.8,0.6-1.4,1.2-1.8,1.6c-0.4,0.4-0.4,0.7-0.2,0.8c-0.9-0.3-1.3-0.8-1.1-1.5
		c0.1-0.7,0.6-1.5,1.4-2.4c0.8-0.9,1.9-1.9,3.3-3c1.3-1.1,2.8-2.1,4.3-3.2c1.5-1.1,3.1-2.2,4.6-3.2c1.5-1,2.9-2,4.1-2.9
		c1.2-0.9,2.1-1.7,2.8-2.3C187.6,444.3,187.8,443.8,187.6,443.4z M217.6,459.5c-0.5,0.6-1.1,1.3-1.8,2.2c-0.8,0.9-1.6,1.8-2.6,2.8
		c-0.9,1-2,1.9-3.3,2.7c-1.2,0.8-2.6,1.4-4.1,1.9c-1.5,0.4-3.1,0.5-4.9,0.2c-0.1,0-0.2,0-0.3-0.1c-0.5,0.6-0.8,1.2-1.1,1.8
		c-0.3,0.6-0.4,1.1-0.5,1.6c0,0.5,0.1,0.9,0.4,1.2c0.3,0.3,0.7,0.6,1.4,0.7c0.7,0.1,1.4,0,2.3-0.3c0.9-0.3,1.9-0.8,2.9-1.3
		c1-0.6,1.9-1.2,2.8-1.9c0.9-0.7,1.7-1.4,2.3-2.1c0.6-0.7,1-1.3,1.3-1.8c0.2-0.5,0.1-0.9-0.3-1.1c1.5,0.3,2.3,0.5,3.8,0.9
		c-1.9,1.8-3.8,3.4-5.6,4.7c-0.8,0.6-1.6,1.1-2.5,1.6c-0.9,0.5-1.7,1-2.6,1.3c-0.9,0.4-1.8,0.6-2.6,0.8c-0.9,0.2-1.7,0.1-2.5,0
		c-1.3-0.3-2.2-0.7-2.8-1.4c-0.6-0.6-0.9-1.4-0.9-2.3c0-0.9,0.2-1.8,0.7-2.8c0.1-0.2,0.2-0.5,0.4-0.7c-0.2,0.2-0.4,0.4-0.7,0.5
		c-0.8,0.5-1.6,1-2.5,1.5c-0.9,0.5-1.7,0.9-2.6,1.2c-0.9,0.3-1.7,0.5-2.5,0.7c-0.8,0.1-1.6,0.1-2.3-0.1c-0.8-0.2-1.2-0.6-1.3-1.1
		c0-0.5,0.2-1.2,0.7-2c0.5-0.8,1.1-1.7,1.9-2.6c0.8-0.9,1.7-1.8,2.7-2.7c0.9-0.9,1.9-1.8,2.8-2.7c0.9-0.9,1.7-1.7,2.4-2.4
		c0.6-0.7,1.1-1.3,1.3-1.8c0.2-0.5,0.1-0.8-0.4-0.9c0.9,0.3,1.7,0.5,2.2,0.9c0.6,0.4,1,0.7,1.3,1c0.4,0.4,0.6,0.7,0.7,1.1
		c-2.8,2.2-5.2,4.1-7.3,5.9c-0.8,0.7-1.7,1.5-2.5,2.2c-0.8,0.8-1.4,1.4-1.9,2c-0.5,0.6-0.9,1.1-1.1,1.5c-0.2,0.4-0.1,0.6,0.1,0.7
		c0.5,0.1,1.2,0.1,1.9-0.2c0.8-0.3,1.6-0.7,2.5-1.2c0.9-0.5,1.7-1.1,2.6-1.7c0.8-0.6,1.6-1.3,2.1-1.9c0.6-0.6,1-1.2,1.2-1.7
		c0.2-0.5,0.1-0.9-0.3-1.1c0.9,0.3,1.6,0.4,2.3,0.6c0.3-0.3,0.5-0.5,0.9-0.8c1.1-0.9,2.3-1.7,3.6-2.3c1.3-0.6,2.6-1.1,3.9-1.3
		c1.3-0.3,2.6-0.3,3.9-0.1c0.8-0.7,1.7-1.1,2.6-1.3c0.9-0.2,1.9,0,3,0.6C218.5,458.6,218.1,458.9,217.6,459.5z M316.9,460.1
		c-0.5,1.2-1.1,2.4-1.8,3.5c-0.7,1.1-1.4,2.3-2.2,3.4c-0.8,1.1-1.6,2.2-2.4,3.2c-0.4,2-0.8,3.9-1.3,5.5c-0.5,1.6-1.2,2.8-2.2,3.7
		c-1,0.9-1.9,1.5-2.7,1.7c-0.8,0.2-1.5,0.2-2.1-0.1c-0.6-0.2-1.1-0.7-1.4-1.3c-0.4-0.7-0.6-1.4-0.7-2.2c-0.1-0.5,0-1.1,0.1-1.7
		c0.1-0.6,0.3-1.1,0.5-1.6c0.2-0.5,0.5-0.9,0.9-1.3c0.4-0.3,0.8-0.6,1.2-0.7c0.4-0.1,0.9-0.1,1.4,0c0.5,0.2,1,0.5,1.5,1.1
		c-0.4,0.1-0.7,0.3-1.1,0.6c-0.4,0.3-0.7,0.7-0.9,1.1c-0.3,0.4-0.6,0.8-0.8,1.3c-0.2,0.4-0.4,0.9-0.5,1.3c-0.2,1-0.2,1.7,0,2.1
		c0.3,0.4,0.6,0.6,1,0.5c0.4,0,0.9-0.2,1.3-0.5c0.5-0.3,0.9-0.7,1.2-1.2c0.3-0.5,0.5-1.1,0.8-1.8c0.2-0.7,0.3-1.5,0.5-2.4
		c0.1-0.9,0.3-1.9,0.4-2.9c0.1-1.1,0.2-2.1,0.4-3.2c-0.4,0.7-1,1.3-1.6,1.9c-0.6,0.5-1.2,0.9-1.9,1.2c-0.8,0.2-1.3,0.2-1.7-0.2
		c-0.4-0.4-0.6-1-0.7-1.7c-0.1-0.5-0.1-1.1,0-1.7c0,0.1-0.1,0.1-0.1,0.2c-0.4,0.8-0.8,1.6-1.2,2.5c-0.4,0.8-0.9,1.5-1.5,2.2
		c-0.5,0.7-1.2,1.3-1.8,1.7c-0.6,0.5-1.3,0.8-2,1c-0.8,0.2-1.4,0-1.7-0.5c-0.3-0.5-0.4-1.3-0.4-2.2c-0.6,1.1-1.3,2-2,2.8
		c-0.7,0.8-1.5,1.3-2.4,1.5c-0.8,0.2-1.4,0-1.9-0.6c-0.4-0.6-0.7-1.5-0.9-2.5c-0.1-1.1-0.2-2.4-0.1-3.8c0-0.2,0.1-0.4,0.1-0.6
		c0,0,0,0,0,0.1c-0.3,0.5-0.7,0.9-1.1,1.4c-0.4,0.5-0.8,0.9-1.2,1.3c-0.4,0.4-0.9,0.7-1.4,1c-0.5,0.2-1,0.4-1.5,0.5
		c-0.6,0.1-1,0-1.4-0.1c-0.4-0.2-0.7-0.4-0.9-0.8c-0.7,0.9-1.4,1.8-2.1,2.6c-0.7,0.8-1.4,1.5-2.1,2.2c-0.7,0.6-1.3,1.1-1.9,1.5
		c-0.6,0.4-1.1,0.6-1.5,0.7c-0.8,0.1-1.3-0.1-1.6-0.5c-0.2-0.5-0.4-1.2-0.2-2c-0.7,0.9-1.5,1.7-2.4,2.4c-0.8,0.6-1.7,1.1-2.7,1.2
		c-0.8,0.1-1.3-0.1-1.6-0.5c-0.3-0.5-0.3-1.2-0.3-2.1c0.1-0.9,0.3-1.9,0.7-3.1c0.2-0.8,0.5-1.6,0.8-2.4c-0.3,0.3-0.6,0.6-0.9,1
		c-0.4,0.4-0.8,0.8-1.3,1.2c-0.4,0.3-0.9,0.6-1.4,0.8c-0.5,0.2-1,0.3-1.5,0.4c-0.5,0-1-0.1-1.3-0.2c-0.6,0.7-1.3,1.4-1.9,2
		c-0.7,0.6-1.3,1.2-2,1.7c-0.7,0.5-1.3,0.8-2,1.2c-0.7,0.3-1.3,0.4-1.9,0.4c-0.9,0.1-1.5-0.2-1.9-0.8c-0.4-0.6-0.6-1.4-0.6-2.5
		c0-1,0.2-2.2,0.6-3.4c-0.3,0.4-0.6,0.8-1,1.1c-0.6,0.7-1.2,1.3-1.9,2c-0.7,0.7-1.4,1.2-2.1,1.7c-0.7,0.5-1.5,0.9-2.2,1.2
		c-0.8,0.3-1.5,0.4-2.2,0.4c-0.8-0.1-1.3-0.3-1.6-0.7c-0.3-0.4-0.4-0.9-0.3-1.5c0.1-0.6,0.3-1.3,0.6-2.1c0.3-0.8,0.7-1.6,1.1-2.4
		c0.4-0.9,0.8-1.7,1.2-2.5c0.4-0.8,0.8-1.6,1-2.2c0.3-0.7,0.4-1.3,0.4-1.8c0-0.5-0.2-0.8-0.7-0.9c-0.7,0-1.5,0-2.2,0c0,0,0,0,0,0
		c-1.3,1.6-2.5,3.3-3.8,4.9c-1.2,1.6-2.3,3.1-3.2,4.4c-0.9,1.3-1.5,2.4-1.9,3.2c-0.4,0.8-0.5,1.2-0.1,1.3c-0.9-0.1-1.4-0.4-1.5-1.1
		c-0.1-0.7,0.1-1.6,0.6-2.7c0.5-1.1,1.2-2.4,2.1-3.8c0.9-1.4,1.9-2.9,2.9-4.4c1.1-1.5,2.1-3,3.2-4.5c1.1-1.5,2-2.8,2.8-4
		c0.8-1.2,1.4-2.2,1.8-3.1c0.4-0.9,0.4-1.4,0.1-1.7c0.9,0.1,1.7,0.3,2.2,0.6c0.5,0.3,0.9,0.7,1.2,1c0.3,0.4,0.5,0.9,0.5,1.4
		c-0.7,0.9-1.7,2-2.8,3.4c-1.1,1.4-2.3,2.8-3.6,4.4c1.4,0.1,2.8-0.2,4.1-0.8c1.3-0.6,2.5-1.3,3.5-2.3c1-0.9,1.9-2,2.6-3.1
		c0.7-1.1,1.1-2.2,1.2-3.2c0.1-1,0-1.9-0.5-2.6c-0.5-0.7-1.4-1.2-2.7-1.4c-2-0.3-3.8-0.2-5.3,0.3c-1.6,0.4-2.9,1.1-3.9,1.9
		c-1.1,0.8-2,1.7-2.7,2.8c-0.7,1-1.2,2-1.5,2.9c-0.3,0.9-0.4,1.7-0.4,2.3c0,0.6,0.2,1,0.5,1c-1.5,0.1-2.7-0.1-3.4-0.7
		c-0.7-0.6-1-1.4-1-2.4c0.1-1,0.5-2,1.4-3.2c0.8-1.1,2-2.2,3.5-3.1c1.5-0.9,3.4-1.7,5.6-2.2c2.2-0.5,4.7-0.6,7.6-0.4
		c2.1,0.3,3.7,0.7,4.9,1.5c1.1,0.8,1.9,1.7,2.2,2.7c0.3,1,0.3,2.1-0.2,3.2c-0.5,1.2-1.2,2.2-2.3,3.2c-1.1,1-2.4,1.9-4.1,2.6
		c-1.6,0.8-3.5,1.2-5.5,1.5c0.6,0.1,1.1,0.3,1.5,0.5c0.4,0.2,0.8,0.5,1.1,0.8c0.3,0.3,0.6,0.6,0.8,0.9c-1.5,2-2.7,3.7-3.6,5.3
		c-0.4,0.7-0.8,1.3-1.2,2c-0.3,0.6-0.6,1.2-0.8,1.7c-0.2,0.5-0.3,0.9-0.3,1.2c0,0.3,0.2,0.5,0.5,0.5c0.5,0,1.1-0.2,1.8-0.6
		c0.7-0.4,1.3-1,2-1.6c0.7-0.7,1.3-1.4,1.9-2.2c0.6-0.8,1.1-1.6,1.4-2.3c0.4-0.7,0.6-1.4,0.6-1.9c0-0.5-0.2-0.9-0.6-1.1
		c1.1,0.1,1.7,0.1,2.6,0.2c0.6-1.1,1.2-2.2,1.9-3.2c0.8-1.1,1.7-2.1,2.6-2.9c0.9-0.8,1.8-1.3,2.7-1.5c0.9-0.2,1.7-0.1,2.5,0.5
		c1.1-0.3,1.9-0.3,2.6-0.1c0.6,0.2,1,0.6,1.2,1.1c0.2,0.6,0.2,1.3,0,2.1c-0.2,0.8-0.5,1.7-0.9,2.7c-0.4,1-1,2-1.6,3
		c-0.7,1.1-1.4,2.1-2.2,3c0.1,0.3,0.4,0.4,0.9,0.4c0.6,0,1.1-0.3,1.7-0.8c0.6-0.5,1.1-1.1,1.5-1.8c0.4-0.7,0.7-1.3,0.7-2
		c0.1-0.7-0.2-1.2-0.7-1.5c1.1,0,1.8,0,2.7-0.1c0.1-0.3,0.3-0.6,0.4-1c0.5-1.2,0.8-2.2,1.1-3.1c0.3-0.9,0.4-1.6,0.4-2.1
		c0-0.5-0.2-0.8-0.7-0.7c1.3-0.2,2.2-0.1,2.8,0.3c0.6,0.4,0.9,1,0.9,1.8c0.1,0.8-0.1,1.7-0.4,2.8c-0.3,1.1-0.7,2.2-1.2,3.4
		c-0.5,1.2-1,2.3-1.6,3.4c-0.6,1.1-1,2.1-1.4,3c-0.4,0.9-0.6,1.6-0.7,2.1c-0.1,0.5,0,0.7,0.4,0.7c0.5-0.1,1-0.4,1.6-1
		c0.6-0.5,1.1-1.3,1.6-2c0.5-0.8,1-1.7,1.4-2.6c0.4-0.9,0.8-1.8,1-2.6c0.2-0.8,0.3-1.5,0.2-2c-0.1-0.5-0.3-0.9-0.8-0.9
		c0.8-0.1,1.1-0.2,1.9-0.3c0.4-1,0.7-1.9,1-2.7c0.3-0.9,0.5-1.6,0.7-2.2c0.2-0.6,0.2-1.1,0.1-1.5c-0.1-0.3-0.3-0.5-0.7-0.4
		c0.9-0.2,1.7-0.2,2.4-0.1c0.7,0.1,1.2,0.2,1.6,0.4c0.5,0.2,0.9,0.4,1.2,0.7c-1.6,3-3,5.7-4.1,8.1c-0.5,1-0.9,2-1.3,2.9
		c-0.4,1-0.7,1.8-0.9,2.5c-0.3,0.8-0.4,1.3-0.4,1.7c0,0.4,0.1,0.6,0.4,0.6c0.2,0,0.5-0.2,0.9-0.6c0.4-0.4,0.9-0.8,1.4-1.4
		c0.5-0.6,1.1-1.2,1.7-2c0.6-0.7,1.1-1.6,1.7-2.5c-0.1-0.4-0.1-0.9-0.1-1.3c0-0.4,0-0.9,0.1-1.2c0-0.4,0.1-0.8,0.2-1.3
		c0.1-0.8,0.4-1.7,0.7-2.6c0.3-0.9,0.7-1.8,1.1-2.5c0.4-0.9,0.9-1.8,1.4-2.7c1.3-0.2,2-0.2,3.4-0.4c0.1,0.3,0.1,0.6,0,1.1
		c-0.1,0.5-0.2,1.1-0.3,1.7c-0.1,0.6-0.3,1.2-0.5,1.8c-0.2,0.6-0.4,1.1-0.6,1.6c-0.4,0.8-0.8,1.6-1.3,2.4c-0.5,0.9-1,1.7-1.6,2.6
		c-0.1,0.7-0.1,1.2,0,1.7c0.1,0.4,0.5,0.6,1.1,0.5c0.5-0.1,1.1-0.4,1.7-1c0.6-0.6,1.1-1.2,1.4-2c0.4-0.7,0.6-1.4,0.7-2.1
		c0-0.7-0.2-1.1-0.8-1.4c1-0.1,1.6-0.2,2.4-0.3c0-0.1,0-0.1,0-0.2c0.4-1.5,0.8-2.9,1.4-4.2c0.6-1.3,1.2-2.4,2-3.3
		c0.8-0.9,1.6-1.4,2.5-1.7c0.9-0.2,1.9-0.1,2.9,0.6c0.5,0.4,1,1.1,1.2,2c0.4-1.5,0.9-2.9,1.4-4.5c0.4-1.5,0.9-3,1.3-4.4
		c0.4-1.4,0.8-2.7,1.1-3.9c0.3-1.2,0.6-2.3,0.7-3.2c0.2-0.9,0.3-1.6,0.2-2c0-0.5-0.2-0.7-0.4-0.7c1-0.2,1.8-0.3,2.5-0.3
		c0.7,0,1.2,0.1,1.7,0.3c0.5,0.2,0.9,0.4,1.2,0.6c-1.7,4.7-3.3,9.1-4.7,13.1c-0.6,1.7-1.2,3.5-1.8,5.2c-0.6,1.7-1.1,3.3-1.6,4.8
		c-0.5,1.5-0.9,2.8-1.3,4c-0.4,1.2-0.6,2-0.7,2.6c-0.2,0.9-0.3,1.6-0.3,2.2c0,0.5,0.2,0.7,0.5,0.7c0.5-0.1,1-0.5,1.5-1.1
		c0.5-0.6,1-1.3,1.4-2.1c0.5-0.8,0.8-1.7,1.2-2.6c0.3-0.9,0.5-1.8,0.7-2.6c0.1-0.8,0.1-1.5,0-2c-0.1-0.5-0.4-0.8-0.9-0.8
		c1-0.2,1.7-0.4,2.4-0.5c0.1-0.7,0.2-1.3,0.3-1.9c0.2-1.1,0.3-2.1,0.4-2.9c0.1-0.8,0-1.5-0.1-1.9c-0.2-0.5-0.4-0.6-0.9-0.5
		c1.2-0.4,2.2-0.5,2.8-0.2c0.6,0.3,1.1,0.7,1.3,1.4c0.2,0.7,0.3,1.5,0.2,2.5c-0.1,1-0.2,2-0.5,3.1c-0.2,1.1-0.5,2.2-0.8,3.2
		c-0.3,1.1-0.6,2-0.8,2.8c-0.2,0.8-0.3,1.5-0.3,1.9c0,0.5,0.2,0.6,0.6,0.5c0.5-0.2,1-0.6,1.4-1.3c0.4-0.7,0.9-1.5,1.2-2.5
		c0.4-1,0.7-2,0.9-3c0.2-1.1,0.4-2.1,0.4-3c0-0.9,0-1.6-0.2-2.2c-0.2-0.6-0.5-0.8-1-0.8c0.8-0.2,1.1-0.4,1.9-0.6
		c0.1-1.3,0.1-2.2,0-2.9c-0.1-0.7-0.4-1-0.8-1c0.9-0.3,1.7-0.4,2.3-0.5c0.7,0,1.2,0,1.7,0.1c0.5,0.1,1,0.3,1.3,0.5
		c-0.5,1.1-0.9,2.4-1.2,3.7c-0.3,1.3-0.6,2.6-0.9,3.9c-0.3,1.3-0.5,2.7-0.6,4c-0.2,1.3-0.4,2.7-0.6,4c0.8-1.2,1.6-2.4,2.2-3.6
		c0.6-1.2,1.2-2.3,1.5-3.3c0.4-1,0.5-1.9,0.5-2.5c0-0.7-0.2-1-0.7-1.1c1.5-0.5,2.2-0.7,3.8-1.2C317.9,457.8,317.4,459,316.9,460.1z
		 M326.4,332.2c0,0.3,0.2,0.3,0.3,0.1c0.1-0.1,0.2-0.2,0.3-0.4c0-0.1,0.1-0.1,0.1-0.2c0.1-0.1,0.1-0.3,0.1-0.4c0-0.1,0-0.2,0-0.3
		c0-0.1,0-0.3-0.1-0.4c-0.1-0.1-0.2,0.1-0.2,0.3c0,0.1-0.1,0.3-0.2,0.4c-0.1,0.2-0.1,0.4-0.2,0.5C326.5,332,326.5,332.1,326.4,332.2
		z M296.5,212.9c1.9-0.1,2.8-0.2,4.7-0.3c-1.9,2.7-2.8,4-4.7,6.7c-2.8,0.2-4.2,0.3-7.1,0.5v-6.4c1.7-0.1,2.6-0.2,4.3-0.3V203
		c-9.5,0.7-14.3,1.1-23.9,2.2v10.1c2.5-0.3,3.7-0.4,6.2-0.6c0,2,0,3,0,5c0,1.2-1.4,2.9-2.4,4c-0.2,0.2-0.2,0.3-0.4,0.5
		c0.1,0.1,0.2,0.2,0.4,0.3c0.9,0.9,2.4,2.2,2.4,3.5v7.5c-2.5,0.2-3.8,0.4-6.3,0.6v10.1c9.6-1,14.4-1.5,23.9-2.2v-10.1
		c-1.7,0.1-2.5,0.2-4.3,0.3v-5.9c0.9-0.1,1.4-0.1,2.3-0.2c3-0.2,6.5,5.6,7.7,9.3c1.9,6.2,6.4,7.3,11.7,7.2c4.6-0.1,9.3-4.6,9.3-12.1
		v-6.3c-1.4,0-2.1,0-3.5,0v3.8c0,1.2-0.3,3.1-1.6,3c-0.6,0-1.5-1.6-2-2.7c-1.8-3.9-4.5-6.4-7.5-7.3c-0.1,0-0.2,0-0.3-0.1
		c3.7-4.3,5.5-6.5,9.2-10.7c1.5,0,2.2,0,3.7,0v-10.1c-8.8,0-13.3,0.2-22.1,0.7C296.5,206.8,296.5,208.8,296.5,212.9z M275.5,225.6
		c-0.3-0.3-0.5-0.6-0.8-0.9c-0.2-0.2-0.5-0.5-0.7-0.6c3.4-0.4,5.1-0.5,8.4-0.8c0,0-4.1,1.4-6.2,3.4
		C275.9,226.3,275.7,225.9,275.5,225.6z M295.2,229.3c-1.1-1.1-2.3-1.7-3.4-1.6c-1,0.1-1.6,0.1-2.6,0.2c0,0,0,0,0,0v6.5
		c-2.7,2.2-4,3.3-6.6,5.5c3.4-0.3,5.1-0.5,8.6-0.7c0.9-1.9,1.4-2.8,2.3-4.7v9c-9.3,0.6-13.9,1.1-23.2,2.1c1.4-2,2-2.9,3.4-4.9
		c3.5-0.4,5.3-0.6,8.8-0.9c0-12.4,0-18.6,0-30.9c-2.4,2.1-3.6,3.1-6.1,5.2c-2.4,0.3-3.7,0.4-6.1,0.6c1.8-2,2.7-3.1,4.5-5.1
		c3.1-0.3,4.6-0.5,7.6-0.8c3-0.3,4.5-0.4,7.4-0.6c1.4-2,2.2-2.9,3.6-4.8v9.2c-1.7,0.1-2.6,0.2-4.2,0.3v7c-2.6,1.8-3.9,2.7-6.6,4.5
		c6.9-0.6,10.3-0.9,17.2-1.3C297.9,225.6,297,226.8,295.2,229.3z M318.7,232.2v-3.7c0.6-0.8,0.9-1.2,1.5-1.9h0v5.9
		c0,7.3-4.6,11.7-9,11.7c-4.4,0.1-8.1-0.8-10.3-4.4c1.2-0.8,4.1-3.6,5.7-6.7c0,0,1.6,3.9,4.7,5C315.8,239.8,318.7,236.8,318.7,232.2
		z M313.9,207.1c1.8-1.9,2.6-2.8,4.4-4.6v9.3c-1.4,0-2.1,0-3.5,0c-3.9,4.5-5.9,6.7-9.8,11.3c0.4,0.1,0.6,0.1,0.9,0.2
		c1.7,0.5,3.2,1.5,4.6,2.9c-2.4,3.2-3.9,6.6-3.9,6.6c-2.2-6.5-6.8-9.6-6.8-9.6c4.8-6.5,7.2-9.7,12.1-16.1
		C312.7,207.2,313.1,207.2,313.9,207.1z M311.5,207.2c-3.7,1.9-5.6,2.9-9.3,5c-2.2,0.1-3.2,0.2-5.5,0.3c1.8-2,2.7-3,4.5-4.9
		C305.4,207.4,307.5,207.3,311.5,207.2z M325.5,184l-6.5-9.5l-0.4,11.5l-11.1,3.2l10.8,3.9l-0.1,3.1c1.7,0,3.8,0.1,6.1,0.2l0.7-0.9
		l2.9,1c1.9,0.1,4,0.3,6.3,0.4l-4.8-7.1l7.1-9.1L325.5,184z M212.3,157.1l-0.5-0.3c-1.8-1.2-2.9-3.3-3.1-6.4l-1.7,0.8l-7.8-8.4
		l1.4,11.4l-10.4,4.8l11.3,2.2l1.4,11.4l5.6-10.1l11.3,2.2l-6.9-7.5C212.5,157.2,212.4,157.1,212.3,157.1z M334,327.6
		c-0.1-0.1-0.1-0.3-0.2-0.4c0-0.1-0.1-0.2-0.2-0.4c-0.1-0.2-0.3-0.4-0.4-0.7c-0.1-0.1-0.1-0.3-0.2-0.4c-0.1-0.2-0.1-0.3-0.3-0.5
		c-0.3-0.4-0.7,0-1,0.1c-0.2,0.1-0.5,0.4-0.7,0.7c-0.1,0.2-0.2,0.4-0.3,0.6c-0.1,0.1-0.1,0.3-0.2,0.5c0,0.1,0,0.2-0.1,0.2
		c-0.1,0.2-0.2,0.5-0.3,0.7c-0.1,0.2-0.1,0.4-0.1,0.6c0,0.1-0.1,0.2-0.1,0.3c0,0.1-0.1,0.2-0.2,0.3c-0.1,0.1-0.2,0.3-0.3,0.4
		c-0.1,0.1-0.3,0.2-0.4,0.3c-0.1,0.1-0.1,0.2-0.2,0.3c0,0.1-0.3,0.3-0.3,0.4c0.1,0.1,0.4,0.1,0.5,0.1c0.1,0,0.3,0,0.4-0.1
		c0.1,0,0.2-0.1,0.4-0.1c0.2-0.1,0.4-0.1,0.5-0.2c0.1,0,0.3-0.1,0.4-0.1c0,0,0.1,0,0.2,0c0,0.1-0.1,0.1-0.1,0.2
		c-0.2,0.1-0.4,0.2-0.6,0.3c-0.2,0.1-0.5,0.2-0.8,0.3c-0.2,0-0.3,0.1-0.5,0.1c-0.2,0-0.5,0.1-0.7,0.1c-0.2,0.1-0.5,0.1-0.6,0.3
		c0,0,0,0.1,0,0.1c0.1,0.4,0.7,0.5,1.1,0.7c0.2,0,0.3,0.1,0.5,0.2c0.4,0,0.7-0.1,1-0.2c0.1,0,0.3,0,0.4,0c0.2,0,0.4-0.1,0.6-0.1
		c0.2-0.1,0.3-0.2,0.4-0.3c0.1-0.1,0.3-0.1,0.4-0.2c0.2-0.1,0.3-0.2,0.5-0.4c0.3-0.3,0.3-0.6,0.3-1c0-0.1,0-0.2,0-0.3
		c0-0.3-0.1-0.4-0.2-0.7c-0.1-0.3-0.2-0.7-0.3-1.1c0-0.1-0.1-0.3-0.1-0.4c-0.1-0.3-0.1-0.6,0.1-0.9c0.1-0.1,0.1-0.3,0.3-0.3
		c0.2,0,0.3,0.2,0.4,0.4c0,0.1,0,0.2-0.1,0.4c0,0.1,0,0.3,0,0.4c0,0.2,0.1,0.3,0.2,0.4c0.1,0.1,0.1,0.2,0.1,0.3
		c0.1,0.3,0.3,0.6,0.4,0.9c0,0.1,0.1,0.2,0.1,0.3c0,0.1,0,0.2,0,0.3c0,0,0.1,0.1,0.2,0.1c0.1,0,0.2-0.2,0.3-0.4
		c0-0.1,0.1-0.2,0.1-0.3c0.2-0.3,0.2-0.5,0.2-0.7C334.6,328.3,334.2,327.9,334,327.6z M196.5,296.5c-1.3,0.1-2,0.1-3.3,0.2
		c0.5-1.9,0.7-2.8,1.2-4.7c5.2-0.2,7.8-0.4,13-0.8c0.5,1.8,0.7,2.7,1.2,4.6c-1.3,0.1-2,0.1-3.3,0.2c0,4,0,6,0,9.9
		c6.5-0.4,9.8-0.8,16.4-1.4c0-4,0-5.9,0-10c-1.5,0.2-2.2,0.2-3.7,0.4c-4.7-13.3-7.1-19.9-11.8-33.3c-4.6,0.3-6.9,0.5-11.5,0.7
		c-4.6,13.9-6.9,20.9-11.5,34.6c-1.2,0-1.8,0-3.1,0c0,4,0,6,0,9.9c6.6,0,9.9-0.1,16.4-0.4V296.5z M200.7,271c1.5,4,2.2,5.9,3.7,9.9
		c-2.9,0.2-4.4,0.3-7.3,0.4C198.6,277.1,199.3,275.1,200.7,271z M180,333.6c0.1,0,0.2-0.2,0.3-0.3c0.1-0.1,0.2-0.1,0.3-0.1
		c0-0.1,0.1-0.2,0.1-0.3c-0.1-0.1-0.2-0.1-0.3-0.1c-0.2,0.1-0.5,0.2-0.6,0.5c0,0,0,0.1,0,0.1C179.7,333.5,179.9,333.6,180,333.6z
		 M180.4,329.5c0,0,0.1-0.1,0.1-0.2c0-0.1-0.2-0.2-0.3-0.2c-0.2,0-0.4,0.1-0.6,0.2c-0.1,0-0.2,0-0.2,0.1c0,0.1,0.2,0.2,0.3,0.2
		c0.2,0,0.3-0.1,0.4-0.1C180.1,329.6,180.3,329.6,180.4,329.5z M180.5,322.8c-0.3-0.4-0.9,0-1.3-0.4c-0.1-0.1-0.2-0.2-0.3-0.4
		c-0.2-0.3-0.5-0.6-0.8-0.8c-0.2-0.2-0.5-0.3-0.7-0.4c-0.1,0-0.6,0.1-0.4,0.3c0.1,0.1,0.3,0.1,0.4,0.2c0.2,0.1,0.3,0.3,0.4,0.4
		c0,0.1,0.1,0.2,0.2,0.3c0,0.1,0,0.1,0,0.2c0,0,0,0.1-0.1,0.1c-0.1,0.1-0.3,0-0.5,0c-0.1,0-0.3-0.1-0.4,0c-0.1,0.2,0.3,0.5,0.3,0.7
		c0,0.1,0.1,0.2,0,0.3c-0.1,0-0.3-0.1-0.3-0.2c-0.2-0.3-0.4-0.6-0.8-0.8c-0.5-0.4-1.1-0.4-1.4-0.2c-0.1,0.1-0.3,0.3-0.4,0.4
		l-0.3,0.2c-0.2,0.1-0.3,0.3-0.4,0.5c0,0.1-0.1,0.3-0.1,0.4c0,0.2,0,0.3,0,0.5c0,0.1,0,0.3,0.1,0.3c0.1,0,0.1-0.1,0.1-0.2
		c0.1-0.1,0.2-0.3,0.4-0.2c0.2,0.1,0.2,0.4,0.2,0.6c0,0.3,0.2,0.5,0.3,0.8c0,0.1,0.1,0.2,0.1,0.3c0.1,0.2,0.2,0.4,0.3,0.5
		c0.1,0.1,0.3,0.2,0.4,0.3c0.1,0.1,0.2,0.3,0.3,0.4c0.1,0.1,0.1,0.2,0.2,0.3c0.1,0.1,0.2,0.2,0.2,0.4c0.1,0.2,0.2,0.3,0.3,0.5
		c0.1,0.1,0.2,0.3,0.3,0.4c0.1,0.1,0.2,0.3,0.3,0.2c0.2,0,0-0.5,0-0.5c-0.1-0.1-0.1-0.3-0.2-0.5c0-0.2-0.1-0.3-0.2-0.5
		c0-0.2,0-0.4,0-0.6c0-0.1,0-0.3-0.1-0.4c0-0.2,0.1-0.4,0.2-0.6c0-0.1,0.1-0.2,0.1-0.2c0.1,0,0.1,0.1,0.1,0.2c0,0.2,0,0.5-0.1,0.7
		c0,0.4,0.1,0.5,0.2,0.8c0,0.1,0.1,0.3,0.1,0.4c0,0.1,0.1,0.2,0.2,0.4c0,0.1,0.1,0.2,0.2,0.3c0.1,0.1,0.4,0.5,0.6,0.4
		c0.1,0,0.1-0.1,0.1-0.2c0-0.1-0.1-0.2-0.1-0.3c0-0.1,0-0.2,0-0.3c0-0.2,0-0.4,0-0.6c0-0.1,0-0.3,0-0.5c0-0.1,0-0.2,0-0.3
		c0-0.1,0-0.2,0-0.4c0-0.1,0.1-0.2,0.1-0.4c0-0.1,0-0.2,0-0.3c0-0.2,0.1-0.5,0.3-0.7c0.1-0.1,0.1-0.3,0.2-0.3c0.1,0,0.1,0.2,0.1,0.3
		c0,0.2-0.1,0.4-0.2,0.6c0,0.1-0.1,0.2-0.1,0.3c0,0.2,0.1,0.4,0.1,0.6c0,0.2,0,0.4,0,0.7c0,0.2,0,0.3,0.1,0.5c0,0.2,0,0.4,0.1,0.5
		c0,0.2,0.3,0.8,0.6,0.4c0.1-0.1,0.1-0.2,0.2-0.3c0.2-0.4,0.1-0.8,0.1-1.1c0-0.1,0.1-0.2,0.1-0.4c0-0.2,0.2-0.4,0.3-0.6
		c0.1-0.2,0.2-0.4,0.3-0.6c0.1-0.2,0.2-0.3,0.4-0.5c0.2-0.3,0.2-0.6,0.2-0.9c0-0.1,0-0.3,0.1-0.4c0-0.3,0-0.6-0.1-0.9
		C180.6,322.9,180.5,322.9,180.5,322.8z M181.3,329.9c0.1-0.1-0.2-0.4-0.2-0.2c0,0.1,0,0.2,0.1,0.2C181.2,330,181.3,330,181.3,329.9
		z M178.1,333.8C178,333.8,178,333.9,178.1,333.8c-0.1,0.3,0,0.3,0.2,0.3c0.2,0,0.4-0.1,0.6-0.2c0.1,0,0.2-0.1,0.1-0.3
		c0-0.1-0.2-0.1-0.3-0.1c-0.1,0-0.2,0.1-0.3,0.1C178.3,333.7,178.2,333.7,178.1,333.8z M326.9,324.5c0,0.1,0,0.3,0,0.4
		c0,0.1-0.1,0.3-0.2,0.4c-0.1,0.2-0.1,0.3-0.2,0.5c-0.1,0.1-0.2,0.3-0.3,0.4c-0.1,0.2-0.3,0.5-0.4,0.8c0,0.1-0.1,0.3-0.2,0.4
		c0,0.3,0,0.5,0.1,0.7c0,0.1,0,0.3,0.2,0.4c0.3,0.1,0.4-0.3,0.6-0.5c0.1-0.2,0.2-0.3,0.3-0.5c0-0.1,0.3-0.4,0.3-0.4
		c0,0.1,0,0.1,0,0.2c0,0.1-0.1,0.3-0.1,0.4c0,0.1-0.1,0.3-0.2,0.4c0,0.1-0.1,0.2-0.1,0.2c0,0.2-0.2,0.4,0,0.5
		c0.2,0.1,0.4-0.1,0.5-0.1c0.3-0.2,0.6-0.4,0.9-0.7c0-0.1,0.1-0.2,0.2-0.3c0.1-0.1,0.1-0.2,0.2-0.3c0,0,0.1-0.1,0.2-0.1
		c0.1,0.1,0.1,0.4,0,0.6l-0.2,0.2c-0.1,0.1-0.1,0.3-0.2,0.3c-0.1,0.1-0.3,0.2-0.4,0.4c-0.2,0.2-0.3,0.5-0.1,0.6
		c0.1,0,0.2,0.1,0.3,0.1c0.3,0.1,0.5-0.1,0.8-0.2c0.1-0.1,0.2-0.1,0.3-0.2c0.3-0.2,0.5-0.8,0.6-1.1c0-0.1,0-0.2,0.1-0.3
		c0.2-0.5,0.4-1,0.6-1.4c0.1-0.3,0.2-0.6,0.4-0.8c0.2-0.2,0.3-0.4,0.5-0.6c0.1-0.1,0.2-0.2,0.3-0.3c0.1-0.1,0.3-0.3,0.3-0.5
		c0-0.4-0.5-0.7-1-0.9c-0.2-0.1-0.3-0.1-0.5-0.1c-0.3,0-0.5,0-0.7,0.1c-0.2,0-0.4,0-0.6,0c-0.1,0-0.4,0-0.5-0.1
		c-0.1-0.2,0.2-0.3,0.2-0.3c0.1,0,0.1-0.1,0-0.2c-0.1-0.1-0.4-0.2-0.5-0.2c-0.2,0-0.3,0-0.5,0c-0.4,0-0.7,0-0.9,0.3c0,0,0,0.1,0,0.1
		c0,0.1,0,0.1,0,0.2c0,0.2,0,0.4,0,0.6c0,0.2,0,0.3-0.1,0.5C326.9,324.2,326.9,324.3,326.9,324.5z M179.7,331.5
		c0-0.3-0.4-0.3-0.7-0.3c-0.2,0-0.5-0.1-0.7,0c-0.2,0-0.3,0.2-0.4,0.3c-0.1,0.1-0.2,0.1-0.2,0.3c0,0,0,0.1,0,0.1
		c0,0.1,0.2,0.4,0.4,0.4c0.2,0,0.3,0.1,0.5,0.1c0.3,0,0.5-0.2,0.8-0.3C179.5,331.9,179.7,331.7,179.7,331.5z M178.2,329.6
		c0,0,0.1-0.1,0.1-0.1c0-0.1-0.2-0.2-0.3-0.2c-0.2,0-0.5,0-0.6,0.3c0,0.1,0.2,0.1,0.3,0.2C177.8,329.7,178,329.7,178.2,329.6z
		 M176.5,333.3c-0.1,0-0.2-0.1-0.2,0c0,0.1,0.1,0.3,0.3,0.4c0.1,0.1,0.2,0.1,0.3,0.1c0.1,0,0.3,0.1,0.3,0c0,0,0-0.1,0-0.1
		C177.1,333.4,176.8,333.4,176.5,333.3z M180.7,332.2c0,0.3,0.2,0.3,0.4,0.1c0.1-0.1,0.2-0.2,0.3-0.4c0-0.1,0.1-0.1,0.1-0.2
		c0-0.1,0.1-0.3,0.1-0.4c0-0.1,0-0.2,0-0.3c0-0.1,0-0.3-0.1-0.4c-0.1-0.1-0.2,0.1-0.2,0.3c0,0.1-0.1,0.3-0.2,0.4
		c-0.1,0.2-0.1,0.4-0.2,0.5C180.8,332,180.8,332.1,180.7,332.2z M311.6,296c2.8-2.6,4.2-3.9,7-6.4V258c-2.8-2.6-4.2-3.8-7-6.3
		c-8.1,0.2-12.2,0.4-20.4,1c-2.8,2.8-4.2,4.1-7,6.9c0,12.8,0,19.1,0,31.9c2.7,2.2,4,3.3,6.7,5.5C299.2,296.4,303.3,296.2,311.6,296z
		 M294.3,262.5c5.7-0.4,8.6-0.5,14.3-0.7c0,9.7,0,14.6,0,24.3c-5.7,0.2-8.6,0.3-14.3,0.7V262.5z M176.1,330.8
		C176.1,330.8,176,330.7,176.1,330.8c-0.3-0.1-0.4,0.1-0.5,0.3c0,0,0,0.1,0,0.2c0,0.2,0.1,0.3,0.2,0.5c0.1,0.1,0,0.3,0.1,0.4
		c0,0.1,0.1,0.3,0.2,0.3c0.1,0,0.1-0.3,0.1-0.4c0-0.2-0.2-0.4-0.1-0.7C176,331.2,176.1,330.9,176.1,330.8z M322.8,323.2
		c-0.1,0-0.3-0.1-0.3-0.2c-0.2-0.3-0.4-0.6-0.8-0.8c-0.5-0.4-1.1-0.4-1.4-0.2c-0.2,0.1-0.3,0.3-0.4,0.4l-0.3,0.2
		c-0.2,0.1-0.3,0.3-0.4,0.5c-0.1,0.1-0.1,0.3-0.2,0.4c0,0.2,0,0.3,0,0.5c0,0.1,0,0.3,0.1,0.3c0,0,0-0.1,0.1-0.2
		c0.1-0.1,0.2-0.3,0.4-0.2c0.2,0.1,0.2,0.4,0.2,0.6c0,0.3,0.2,0.5,0.2,0.8c0.1,0.1,0.1,0.2,0.1,0.3c0.1,0.2,0.2,0.4,0.3,0.5
		c0.1,0.1,0.3,0.2,0.4,0.3c0.1,0.1,0.2,0.3,0.3,0.4c0.1,0.1,0.2,0.2,0.3,0.3c0.1,0.1,0.1,0.2,0.2,0.4c0.1,0.2,0.2,0.3,0.4,0.5
		c0.1,0.1,0.2,0.3,0.2,0.4c0.1,0.1,0.2,0.3,0.3,0.2c0.2,0,0-0.5,0-0.5c-0.1-0.1-0.1-0.3-0.2-0.5c0-0.2-0.1-0.3-0.2-0.5
		c0-0.2,0-0.4,0-0.6c0-0.1,0-0.3-0.1-0.4c0-0.2,0.1-0.4,0.1-0.6c0-0.1,0.1-0.2,0.1-0.2c0.1,0,0.1,0.1,0.1,0.2c0,0.2,0,0.5-0.1,0.7
		c0,0.4,0.1,0.5,0.2,0.8c0,0.1,0.1,0.3,0.1,0.4c0,0.1,0.1,0.2,0.2,0.4c0,0.1,0.1,0.2,0.1,0.3c0.1,0.1,0.4,0.5,0.6,0.4
		c0,0,0.1-0.1,0.1-0.2c0-0.1,0-0.2-0.1-0.3c0-0.1,0-0.2,0-0.3c0-0.2,0-0.4,0-0.6c0-0.1-0.1-0.3-0.1-0.5c0-0.1,0-0.2,0-0.3
		c0-0.1,0-0.2,0-0.4c0-0.1,0.1-0.2,0.1-0.4c0-0.1,0-0.2,0-0.3c0-0.2,0.1-0.5,0.3-0.7c0.1-0.1,0.1-0.3,0.2-0.3c0.1,0,0.1,0.2,0.1,0.3
		c-0.1,0.2-0.2,0.4-0.2,0.6c0,0.1-0.1,0.2-0.1,0.3c0,0.2,0.1,0.4,0.1,0.6c0,0.2,0,0.4,0,0.7c0,0.2,0.1,0.3,0.1,0.5
		c0,0.2,0,0.4,0.1,0.5c0.1,0.2,0.4,0.8,0.6,0.4c0-0.1,0.1-0.2,0.1-0.3c0.3-0.4,0.1-0.8,0.1-1.1c0-0.1,0.1-0.2,0.1-0.4
		c0.1-0.2,0.2-0.4,0.3-0.6c0.1-0.2,0.2-0.4,0.3-0.6c0.1-0.2,0.3-0.3,0.4-0.5c0.2-0.3,0.2-0.6,0.2-0.9c0-0.1,0-0.3,0-0.4
		c0-0.3,0-0.6-0.1-0.9c0-0.1-0.1-0.2-0.1-0.3c-0.3-0.4-0.8,0-1.3-0.4c-0.1-0.1-0.2-0.2-0.3-0.4c-0.2-0.3-0.5-0.6-0.8-0.8
		c-0.2-0.2-0.5-0.3-0.7-0.4c-0.1,0-0.5,0.1-0.4,0.3c0.1,0.1,0.3,0.1,0.4,0.2c0.2,0.1,0.3,0.3,0.4,0.4c0,0.1,0.1,0.2,0.2,0.3
		c0,0.1,0,0.1,0,0.2c0,0,0,0.1-0.1,0.1c-0.1,0.1-0.4,0-0.6,0c-0.1,0-0.3-0.1-0.3,0c-0.1,0.2,0.2,0.5,0.3,0.7
		C322.9,323.1,322.9,323.2,322.8,323.2z M311.7,330.3c0,0.1,0.1,0.2,0.2,0.3c0.1,0.1,0.2,0.2,0.3,0.4c0.1,0.1,0.2,0.2,0.4,0.3
		c0.2,0.1,0.4,0.2,0.6,0.3c0.2,0,0.4,0.1,0.6,0.2c0.3,0.1,0.6,0.1,0.8,0c0.1,0,0.4,0,0.5-0.1c0.1-0.1-0.3-0.2-0.4-0.3
		c-0.2,0-0.5,0-0.8-0.2c-0.2-0.2-0.3-0.3-0.5-0.5c-0.2-0.1-0.4-0.2-0.6-0.3c-0.2-0.1-0.3-0.3-0.3-0.4c0-0.1,0-0.2,0.1-0.2
		c0.1,0,0.2,0.1,0.3,0.1c0.2,0.1,0.4,0.3,0.6,0.4c0.3,0.2,0.5,0.2,0.8,0.3c0.2,0.1,0.5,0.2,0.7,0.2c0.1,0,0.2,0,0.3,0.1
		c0.2,0,0.3,0.1,0.5,0c0.4,0,0.7-0.2,1-0.4c0.1,0,0.2-0.1,0.3-0.1c0.1,0,0.2-0.1,0.3-0.1c0.1,0,0.2-0.1,0.4-0.1
		c0.1,0,0.2-0.1,0.3-0.1l0.3,0c0.2,0,0.4-0.1,0.6-0.1c0.2,0,0.5,0,0.8,0.1h0.5c0.1,0,0.4,0,0.5-0.1c0.1-0.1-0.1-0.3-0.2-0.4
		c-0.2-0.2-0.5-0.3-0.8-0.4c-0.2-0.1-0.4-0.2-0.7-0.3c-0.1,0-0.6-0.3-0.5-0.4c0.1-0.1,0.3-0.1,0.4-0.1c0.2,0,0.3,0,0.6,0.1
		c0.1,0,0.3,0.1,0.4,0.2c0.1,0,0.2,0.1,0.4,0.2c0.2,0.1,0.4,0.2,0.5,0.3c0.1,0,0.1,0.1,0.2,0.1c0.2,0.1,0.5,0.2,0.5-0.1
		c0-0.1-0.1-0.2-0.1-0.4c-0.1-0.3-0.2-0.5-0.4-0.7c-0.1-0.1-0.2-0.2-0.3-0.3c-0.2-0.2-0.4-0.4-0.7-0.6c-0.1-0.1-0.3-0.1-0.4-0.2
		c-0.3-0.2-0.7-0.3-0.9-0.5c-0.1-0.1-0.2-0.1-0.3-0.2c-0.1-0.1-0.2-0.2-0.3-0.2c-0.1-0.1-0.2-0.2-0.3-0.3c-0.2-0.2-0.4-0.4-0.7-0.7
		c-0.1-0.1-0.2-0.1-0.3-0.2c-0.1-0.1-0.3-0.1-0.4-0.1c-0.3-0.1-0.5-0.1-0.8-0.1c-0.1,0-0.3,0.1-0.4,0.2c-0.3,0.2-0.5,0.3-0.8,0.7
		c-0.1,0.3-0.3,0.6-0.1,0.8c0.2,0.2,0.8,0.3,1,0.3c0.1,0,0.3,0,0.2,0.1c0,0.1-0.1,0.1-0.2,0.1c-0.2,0.1-0.4,0.1-0.7,0.2
		c-0.1,0-0.3,0.1-0.4,0c-0.2,0-0.4-0.1-0.6-0.1c-0.1,0-0.3,0.1-0.4,0.2c-0.2,0.1-0.5,0.2-0.7,0.5c-0.1,0.1-0.2,0.4-0.3,0.5
		c-0.1,0.2-0.3,0.2-0.4,0.3c-0.1,0.1-0.2,0.4-0.3,0.6c0,0,0,0.1,0,0.1c0,0.1,0,0.2,0,0.3c0,0.1,0,0.3,0,0.4
		C311.6,330,311.7,330.2,311.7,330.3z M131.1,221.2c0.1,7.8,5.3,12.1,9.7,13.5c2,0.7,4.2,1.2,6.3,1.7c1.2,0.3,2.3,1.4,3.2,2.7
		c0.1,0.2,0.2,0.2,0.3,0.4l0.3-0.3c0.9-1,2-1.8,3.3-1.5c2.2,0.7,4.3,1.7,3.9,3.9c-0.5,3.2-4.4,2.9-6.8,2.5c-2.6-0.4-6-1.5-6.9-5.6
		c-0.1-0.4-0.1-0.5-0.1-0.8c-5.1-0.8-7.6-1.3-12.6-2.5c0,5.5,0,8.2,0,13.7c3.5,0.8,5.2,1.2,8.7,1.8c0.3-0.6,0.4-0.9,0.7-1.5
		c0.4,0.3,0.6,0.5,0.9,0.8c1.9,1.9,6,3.4,9.2,3.8c5.8,0.7,21.5,1.6,21.6-13.6c0.1-8.2-7.5-11.1-14.6-12.8c-1.3-0.3-2.4-1.5-3.3-2.9
		c-0.1-0.1-0.1-0.2-0.2-0.4c-0.1,0.1-0.2,0.2-0.3,0.2c-1.1,1.1-2.4,1.7-3.8,1.3c-2.2-0.6-4.7-1.6-4.7-3.7c0-3.1,4-2.6,6.3-2.2
		c2.3,0.4,5.3,1.2,6.7,3.9c0.2,0.4,0.3,0.6,0.4,1c5,0.4,7.5,0.6,12.6,0.7c0-5,0-7.4,0-12.4c-3.3-0.1-5-0.2-8.3-0.4
		c-0.2,0.4-0.3,0.6-0.5,1c-0.3-0.1-0.5-0.1-0.8-0.3c-3.3-1.4-6.6-2.6-10-3.1C144.2,209,130.9,206.2,131.1,221.2z M144,237.9
		c0.1,0.2,0.1,0.3,0.1,0.5c0.3,1.3,0.8,2.4,1.5,3.2c-1.6,0.8-2.4,1.2-4.1,2C142.5,241.4,143,240.2,144,237.9z M165.5,230.3
		c4,1.9,7,4.9,7,9.8c-0.1,14.7-15.3,14-21.3,13.2c-3.2-0.4-7.2-2-9.1-3.8c-0.5-0.4-0.7-0.6-1.1-1.1c-0.3,0.7-0.4,1-0.7,1.7
		c-3.3-0.6-4.9-0.9-8.2-1.7c1.7-2.2,2.6-3.4,4.3-5.7c2,0.4,3.1,0.6,5.1,1c2.2,2.3,8.3,5.2,12.3,5.6c4.1,0.5,12.2,0,11.2-9.5
		c-0.4-3.3-2.8-4.7-2.8-4.7S164.3,232.7,165.5,230.3z M151.3,231.8c6.7,1.4,10.6,3.3,10.6,3.3c-1.8,2-2.9,3.9-3.6,5.1
		c-0.2-0.6-0.6-1.2-1.1-1.6c-0.8-0.6-1.9-1-3.1-1.3c-1.3-0.4-2.5,0.4-3.6,1.6c-1-1.5-2.1-2.7-3.4-2.9c-2.1-0.5-4.7-1.2-6.8-1.8
		c-1.3-0.4-5-2.4-6.2-4.6c4.1-0.1,6-2.6,6-2.6C141.6,229.2,144.3,230.4,151.3,231.8z M167.9,219.2c1.5-2.4,2.2-3.5,3.7-5.9
		c0,0,0,0,0.1,0v11.6c-4.8-0.2-7.1-0.3-11.9-0.7c1.7-2.1,2.6-3.1,4.3-5.3C165.6,219.1,166.3,219.1,167.9,219.2z M164,218.9
		c-2.7,0.9-4,1.4-6.7,2.2c-1.5-1.1-3.5-1.5-5-1.8c-1.2-0.2-2.8-0.4-4.1-0.2c-1.2,0.2-2.5,0.8-2.5,2.8c0,0-3.5,1.9-5.4,4.9
		c0,0-2.9-2.9-1.8-8c1.1-5.2,8.3-4.7,11.7-4.2C158.7,215.7,164,218.9,164,218.9z M166,330.3c0,0.1,0.1,0.2,0.2,0.3
		c0.1,0.1,0.1,0.2,0.3,0.4c0.1,0.1,0.2,0.2,0.4,0.3c0.2,0.1,0.4,0.2,0.6,0.3c0.2,0,0.4,0.1,0.5,0.2c0.3,0.1,0.5,0.1,0.8,0
		c0.1,0,0.4,0,0.4-0.1c0.1-0.1-0.3-0.2-0.4-0.3c-0.2,0-0.5,0-0.7-0.2c-0.2-0.2-0.3-0.3-0.5-0.5c-0.2-0.1-0.4-0.2-0.6-0.3
		c-0.1-0.1-0.3-0.3-0.3-0.4c0-0.1,0-0.2,0.1-0.2c0.1,0,0.2,0.1,0.3,0.1c0.2,0.1,0.4,0.3,0.6,0.4c0.2,0.2,0.5,0.2,0.8,0.3
		c0.2,0.1,0.5,0.2,0.7,0.2c0.1,0,0.2,0,0.3,0.1c0.2,0,0.4,0.1,0.5,0c0.4,0,0.7-0.2,1-0.4c0.1,0,0.2-0.1,0.3-0.1
		c0.1,0,0.2-0.1,0.3-0.1c0.1,0,0.3-0.1,0.4-0.1c0.1,0,0.2-0.1,0.3-0.1l0.3,0c0.2,0,0.4-0.1,0.6-0.1c0.3,0,0.5,0,0.8,0.1h0.5
		c0.2,0,0.4,0,0.5-0.1c0.1-0.1-0.1-0.3-0.2-0.4c-0.2-0.2-0.4-0.3-0.8-0.4c-0.2-0.1-0.4-0.2-0.7-0.3c-0.1,0-0.6-0.3-0.6-0.4
		c0.1-0.1,0.3-0.1,0.4-0.1c0.2,0,0.3,0,0.6,0.1c0.1,0,0.2,0.1,0.4,0.2c0.1,0,0.3,0.1,0.4,0.2l0.6,0.3c0,0,0.1,0.1,0.2,0.1
		c0.2,0.1,0.5,0.2,0.5-0.1c0-0.1,0-0.2-0.1-0.4c-0.1-0.3-0.2-0.5-0.4-0.7c-0.1-0.1-0.2-0.2-0.3-0.3c-0.2-0.2-0.4-0.4-0.7-0.6
		c-0.1-0.1-0.3-0.1-0.4-0.2c-0.3-0.2-0.7-0.3-0.9-0.5c-0.1-0.1-0.2-0.1-0.3-0.2c-0.1-0.1-0.2-0.2-0.3-0.2c-0.1-0.1-0.2-0.2-0.3-0.3
		c-0.2-0.2-0.4-0.4-0.6-0.7c-0.1-0.1-0.2-0.1-0.3-0.2c-0.2-0.1-0.3-0.1-0.4-0.1c-0.3-0.1-0.5-0.1-0.7-0.1c-0.1,0-0.3,0.1-0.4,0.2
		c-0.3,0.2-0.5,0.3-0.8,0.7c-0.2,0.3-0.3,0.6-0.1,0.8c0.2,0.2,0.8,0.3,1,0.3c0.1,0,0.3,0,0.2,0.1c0,0.1-0.1,0.1-0.2,0.1
		c-0.2,0.1-0.4,0.1-0.7,0.2c-0.1,0-0.3,0.1-0.4,0c-0.2,0-0.4-0.1-0.6-0.1c-0.1,0-0.3,0.1-0.4,0.2c-0.2,0.1-0.5,0.2-0.7,0.5
		c-0.1,0.1-0.2,0.4-0.3,0.5c-0.1,0.2-0.3,0.2-0.4,0.3c-0.1,0.1-0.2,0.4-0.3,0.6c0,0,0,0.1,0,0.1c0,0.1,0,0.2,0,0.3
		c0,0.1,0,0.3,0.1,0.4C166,330,166,330.2,166,330.3z M188.4,327.6c-0.1-0.1-0.2-0.3-0.2-0.4c0-0.1-0.1-0.2-0.2-0.4
		c-0.1-0.2-0.3-0.4-0.4-0.7c-0.1-0.1-0.2-0.3-0.2-0.4c-0.1-0.2-0.1-0.3-0.3-0.5c-0.4-0.4-0.7,0-0.9,0.1c-0.3,0.1-0.5,0.4-0.7,0.7
		c-0.1,0.2-0.2,0.4-0.3,0.6c-0.1,0.1-0.1,0.3-0.2,0.5c0,0.1-0.1,0.2-0.1,0.2c-0.1,0.2-0.2,0.5-0.3,0.7c0,0.2-0.1,0.4-0.2,0.6
		c0,0.1,0,0.2-0.1,0.3c-0.1,0.1-0.1,0.2-0.2,0.3c-0.1,0.1-0.2,0.3-0.3,0.4c-0.1,0.1-0.3,0.2-0.4,0.3c-0.1,0.1-0.1,0.2-0.2,0.3
		c0,0.1-0.2,0.3-0.2,0.4c0.1,0.1,0.4,0.1,0.5,0.1c0.1,0,0.3,0,0.4-0.1c0.1,0,0.2-0.1,0.4-0.1c0.2-0.1,0.4-0.1,0.5-0.2
		c0.1,0,0.3-0.1,0.4-0.1c0,0,0.1,0,0.1,0c0,0.1-0.1,0.1-0.1,0.2c-0.2,0.1-0.4,0.2-0.5,0.3c-0.3,0.1-0.5,0.2-0.8,0.3
		c-0.2,0-0.3,0.1-0.5,0.1c-0.2,0-0.4,0.1-0.7,0.1c-0.2,0.1-0.6,0.1-0.6,0.3c0,0,0,0.1,0,0.1c0.1,0.4,0.7,0.5,1,0.7
		c0.2,0,0.4,0.1,0.5,0.2c0.4,0,0.7-0.1,1-0.2c0.1,0,0.2,0,0.4,0c0.2,0,0.4-0.1,0.5-0.1c0.2-0.1,0.3-0.2,0.5-0.3
		c0.1-0.1,0.2-0.1,0.3-0.2c0.2-0.1,0.3-0.2,0.5-0.4c0.3-0.3,0.3-0.6,0.4-1c0-0.1,0-0.2,0-0.3c0-0.3-0.1-0.4-0.2-0.7
		c-0.1-0.3-0.2-0.7-0.3-1.1c0-0.1-0.1-0.3-0.1-0.4c-0.1-0.3-0.1-0.6,0.1-0.9c0.1-0.1,0.1-0.3,0.2-0.3c0.2,0,0.4,0.2,0.4,0.4
		c0,0.1,0,0.2-0.1,0.4c0,0.1,0,0.3,0,0.4c0,0.2,0.2,0.3,0.2,0.4c0,0.1,0.1,0.2,0.1,0.3c0.1,0.3,0.3,0.6,0.4,0.9
		c0,0.1,0.1,0.2,0.1,0.3c0,0.1,0,0.2,0.1,0.3c0,0,0.1,0.1,0.2,0.1c0.1,0,0.2-0.2,0.2-0.4c0.1-0.1,0.1-0.2,0.1-0.3
		c0.2-0.3,0.2-0.5,0.2-0.7C188.9,328.3,188.6,327.9,188.4,327.6z"/>
</g>
</svg>
